<?xml version="1.0" encoding="utf-8"?>
<!-- Generator: Adobe Illustrator 16.0.4, SVG Export Plug-In . SVG Version: 6.00 Build 0)  -->
<!DOCTYPE svg PUBLIC "-//W3C//DTD SVG 1.1//EN" "http://www.w3.org/Graphics/SVG/1.1/DTD/svg11.dtd">
<svg version="1.1" id="图层_1" xmlns="http://www.w3.org/2000/svg" xmlns:xlink="http://www.w3.org/1999/xlink" x="0px" y="0px"
	 width="300px" height="300px" viewBox="0 0 300 300" enable-background="new 0 0 300 300" xml:space="preserve">
<g>
	<g>
		<path d="M296.915,163.251l-21.913-48.983c-1.82-37.542-63.343-54.417-124.465-54.417c-61.062,0-122.522,16.851-124.454,54.305
			L4.245,163.002c-6.132,12.266-3.402,27.358,6.731,36.819l79.334,70.347c1.159,1.023,2.63,1.569,4.138,1.569
			c0.398,0,0.785-0.035,1.146-0.11c1.907-0.362,3.54-1.597,4.4-3.328l23.208-46.416h54.63l23.208,46.416
			c0.873,1.731,2.493,2.966,4.4,3.328c0.399,0.075,0.785,0.11,1.185,0.11c1.509,0,2.979-0.546,4.114-1.569l79.457-70.446
			C300.216,190.373,302.934,175.279,296.915,163.251z M150.537,72.314c61.46,0,108.262,17.338,111.828,40.756l-95.225,71.419
			h-33.255l-95.176-71.393C42.249,89.664,89.064,72.314,150.537,72.314z M92.516,255.46l-73.139-64.85
			c-6.02-5.609-7.652-14.671-3.852-22.273l19.108-42.727l89.318,66.98L92.516,255.46z M129.435,209.419l6.232-12.465h29.702
			l6.231,12.465H129.435z M281.819,190.498l-73.25,64.949l-31.435-62.867l89.305-66.982l19.22,42.976
			C289.349,175.939,287.717,185.001,281.819,190.498z"/>
	</g>
</g>
</svg>
