<?xml version="1.0" encoding="UTF-8"?>
<svg width="8px" height="7px" viewBox="0 0 8 7" version="1.1" xmlns="http://www.w3.org/2000/svg" xmlns:xlink="http://www.w3.org/1999/xlink">
    <!-- Generator: Sketch 51.3 (57544) - http://www.bohemiancoding.com/sketch -->
    <title>Combined Shape</title>
    <desc>Created with Sketch.</desc>
    <defs></defs>
    <g id="sidecharts" stroke="none" stroke-width="1" fill="none" fill-rule="evenodd">
        <g id="Desktop-HD-Copy-5" transform="translate(-1278.000000, -178.000000)" fill="#4A4A4A">
            <g id="Group-10" transform="translate(1165.000000, 162.000000)">
                <path d="M118.142857,18.0930702 L119.857143,18.0930702 C120.488325,18.0930702 121,18.6047448 121,19.2359273 C121,19.8671099 120.488325,20.3787845 119.857143,20.3787845 L118.142857,20.3787845 L118.142857,22.0930702 C118.142857,22.7242528 117.631183,23.2359273 117,23.2359273 C116.368817,23.2359273 115.857143,22.7242528 115.857143,22.0930702 L115.857143,20.3787845 L114.142857,20.3787845 C113.511675,20.3787845 113,19.8671099 113,19.2359273 C113,18.6047448 113.511675,18.0930702 114.142857,18.0930702 L115.857143,18.0930702 L115.857143,16.3787845 C115.857143,15.7476019 116.368817,15.2359273 117,15.2359273 C117.631183,15.2359273 118.142857,15.7476019 118.142857,16.3787845 L118.142857,18.0930702 Z" id="Combined-Shape" transform="translate(117.000000, 19.235927) rotate(45.000000) translate(-117.000000, -19.235927) "></path>
            </g>
        </g>
    </g>
</svg>