<?xml version="1.0" encoding="utf-8"?>
<!-- Generator: Adobe Illustrator 16.0.4, SVG Export Plug-In . SVG Version: 6.00 Build 0)  -->
<!DOCTYPE svg PUBLIC "-//W3C//DTD SVG 1.1//EN" "http://www.w3.org/Graphics/SVG/1.1/DTD/svg11.dtd">
<svg version="1.1" id="图层_1" xmlns="http://www.w3.org/2000/svg" xmlns:xlink="http://www.w3.org/1999/xlink" x="0px" y="0px"
	 width="300px" height="300px" viewBox="0 0 300 300" enable-background="new 0 0 300 300" xml:space="preserve">
<g>
	<g>
		<g>
			<path d="M246.486,208.308l-51.176-100.203c4.717-7.42,0.926-16.531-6.912-18.887c0.369-6.045,0.963-11.838,1.324-15.09
				c0.27-2.412-1.467-4.586-3.881-4.854c-2.408-0.27-4.584,1.468-4.854,3.881c-0.477,4.276-1.078,10.372-1.428,16.603
				c-1.145,0.512-2.545,1.413-3.582,2.403c-3.59,2.381-24.832,5.767-44.939,2.386c-11.654-2.343-7.512-2.668-12.262-4.789
				c-0.168-2.97-1.414-19.602-2.142-21.518c-4.005-10.521-3.571-23.077-3.591-33.155h10.891c1.322,1.536,2.975,2.599,4.061,2.997
				c9.369,3.475,11.407,9.943,14.457,13.213c2.047,2.195,5.238,3.395,8.543,2.725l0,0c3.719-0.766,5.305-3.014,7.178-5.769
				c7.697-11.326,11.777-7.993,16.23-13.167h10.889c-0.01,7.099,0.156,11.178-0.381,17.672c-0.209,2.418,1.582,4.548,4,4.756
				c2.412,0.205,4.547-1.582,4.756-4c0.324-3.943,0.414-7.383,0.414-7.449c0-36.766,0.334-35.24-0.996-38.388
				c-5.105-12.067-22.969-9.226-24.248,3.659c-0.16,1.612,0.031,13.377-0.098,15.045c-0.098,1.261-0.527,2.938-1.633,3.529
				c-13.48,5.078-16.566,15.6-18.01,15.492c-1.601-0.66-4.803-10.571-17.865-15.492c-1.057-0.568-1.504-2.16-1.619-3.364
				c-0.093-0.966-0.023-1.161-0.047-13.941c0-10.667-12.4-16.507-20.63-9.821c-2.938,2.386-4.678,5.96-4.678,9.821
				c0,28.075-1.173,44.199,3.974,58.252c0.25,2.023,1.199,9.99,1.709,18.361c-8.053,2.42-11.494,11.929-6.948,18.958l-9.027,17.676
				c-1.106,2.162-0.249,4.811,1.913,5.914c2.16,1.104,4.809,0.247,5.913-1.915l8.052-15.766c17.414,9.728,60.83,9.522,78.664,0.024
				l50.152,98.197c0.777,1.522,2.318,2.397,3.918,2.397C245.814,214.702,247.992,211.255,246.486,208.308z M177.562,12.603
				c0-2.154,1.742-3.865,3.865-3.865c2.146,0,3.865,1.74,3.865,3.865v13.692h-7.744C177.572,25.641,177.557,26.191,177.562,12.603z
				 M113.348,11.099c1.623-3.836,7.428-2.729,7.428,1.504c0.006,13.534-0.011,13.033,0.014,13.691h-7.744
				C113.144,12.097,112.819,12.348,113.348,11.099z M188.559,101.665c-1.861,12.496-65.178,15.346-77.725,2.326
				c-1.479-1.535-1.435-3.986,0.1-5.466c1.424-1.373,3.656-1.43,5.148-0.193c10.793,9.007,58.158,7.876,65.838,0.306
				C184.754,95.832,189.041,98.418,188.559,101.665z"/>
		</g>
	</g>
	<g>
		<g>
			<path d="M264.721,244.011l-8.904-17.438c-1.105-2.162-3.754-3.02-5.914-1.915s-3.018,3.751-1.914,5.912l8.914,17.452
				c1.285,2.495,0.568,5.535-1.703,7.23c-19.156,14.302-38.775,8.059-55.322,12.734l-23.293-118.895
				c-0.467-2.382-2.77-3.931-5.158-3.469c-2.381,0.468-3.934,2.776-3.467,5.158l23.666,120.806
				c-1.754,1.104-3.439,2.433-5.047,4.038c-20.291,20.285-53.412,20.909-74.34,0.476c-1.884-1.839-3.859-3.331-5.904-4.554
				l23.658-120.766c0.467-2.381-1.086-4.69-3.467-5.158c-2.387-0.462-4.691,1.087-5.158,3.469L98.066,268.024
				c-16.977-4.842-35.787,1.518-54.932-12.771c-2.271-1.695-2.986-4.736-1.694-7.244l51.013-99.881
				c1.104-2.16,0.246-4.808-1.916-5.912c-2.158-1.103-4.809-0.247-5.912,1.915l-51.004,99.866
				c-3.26,6.328-1.471,14.024,4.257,18.299c27.312,20.385,52.766,5.001,68.218,20.093c24.012,23.444,62.607,23.531,86.697-0.547
				c13.953-13.955,40.791,0.512,67.662-19.546C266.182,258.021,267.973,250.325,264.721,244.011z"/>
		</g>
	</g>
</g>
</svg>
