<?xml version="1.0" encoding="utf-8"?>
<!-- Generator: Adobe Illustrator 16.0.4, SVG Export Plug-In . SVG Version: 6.00 Build 0)  -->
<!DOCTYPE svg PUBLIC "-//W3C//DTD SVG 1.1//EN" "http://www.w3.org/Graphics/SVG/1.1/DTD/svg11.dtd">
<svg version="1.1" id="图层_1" xmlns="http://www.w3.org/2000/svg" xmlns:xlink="http://www.w3.org/1999/xlink" x="0px" y="0px"
	 width="300px" height="300px" viewBox="0 0 300 300" enable-background="new 0 0 300 300" xml:space="preserve">
<g>
	<g>
		<path d="M268.406,35.728l-51.146-9.821V4.789c0-2.644-2.143-4.787-4.787-4.787H87c-2.645,0-4.787,2.144-4.787,4.787v21.118
			l-51.146,9.821C20.283,37.798,11.51,48.415,11.51,59.395v219.862c0,11.438,9.307,20.744,20.744,20.744h234.963
			c11.439,0,20.746-9.307,20.746-20.744V59.395C287.963,48.416,279.189,37.798,268.406,35.728z M278.387,279.257
			c0,6.158-5.01,11.17-11.17,11.17H163.569h-9.046h-9.574h-6.752H32.254c-6.158,0-11.17-5.012-11.17-11.17V59.395
			c0-6.505,5.398-13.038,11.787-14.266l52.436-10.068l31.943,34.188c1.006,1.077,2.453,1.629,3.92,1.5
			c1.469-0.13,2.795-0.929,3.596-2.167l8.229-12.705l5.203-8.037l4.812-7.431c0.717-1.108,0.945-2.463,0.631-3.745
			c-0.316-1.282-1.146-2.377-2.295-3.026l-28.877-16.302c-2.303-1.3-5.223-0.487-6.523,1.815c-1.299,2.303-0.486,5.223,1.816,6.522
			l24.447,13.801l-4.621,7.136c-0.01,0.015-0.021,0.027-0.031,0.042s-0.018,0.03-0.025,0.045l-7.471,11.535l-28.273-30.26V9.576
			h115.898v18.398l-28.275,30.26l-7.494-11.572c-0.008-0.013-4.652-7.186-4.652-7.186l24.447-13.801
			c2.303-1.3,3.115-4.22,1.816-6.522c-1.301-2.303-4.221-3.115-6.523-1.815l-28.877,16.302c-1.148,0.649-1.98,1.744-2.295,3.025
			c-0.316,1.282-0.088,2.637,0.631,3.746l4.812,7.431l5.203,8.036l8.229,12.705c0.801,1.237,2.127,2.036,3.596,2.167
			c0.141,0.013,0.281,0.019,0.422,0.019c1.32,0,2.588-0.546,3.498-1.519l31.943-34.188l52.436,10.068
			c6.389,1.227,11.785,7.76,11.785,14.266V279.257z"/>
		<path d="M190.672,74.257l0.607-0.563C191.061,73.865,190.857,74.051,190.672,74.257z"/>
	</g>
	<g>
		<path d="M201.068,198.432c-0.832-1.014-1.688-2.008-2.805-3.334C213.575,192.555,221.912,182.984,226,169c0-3.666,0-7.334,0-11
			c-2.399-6.925-5.086-13.688-11.162-18.364c-9.427-7.256-19.744-8.988-30.971-4.869c-1.22,0.447-2.441,0.889-3.99,1.452
			c-0.207-4.527,0.363-8.764-0.463-13.005C176.924,110.441,168.834,103.03,157,99c-4,0-8,0-12,0
			c-9.88,3.903-17.976,9.588-21.37,20.387c-1.683,5.353-1.847,10.734-1.231,17.004c-11.637-5.365-22.763-5.308-33.217,1.748
			c-6.607,4.459-10.609,10.796-12.348,18.622c-3.901,17.553,6.11,32.183,26.704,38.64c-8.42,8.854-11.874,19.094-8.7,31.094
			c3.002,11.344,10.855,17.864,21.611,21.416c0.885,0.291,2.055-0.105,2.551,1.09c3.334,0,6.666,0,10,0
			c9.707-3.023,17.432-8.513,22.237-18.908C156.121,240.531,164.051,246.064,174,249c3.334,0,6.666,0,10,0
			c4.004-2.178,8.453-3.391,12.143-6.3C210.213,231.601,212.432,212.275,201.068,198.432z M189.845,141.996
			c12.622-3.045,24.499,4.631,26.948,17.178c2.476,12.686-6.281,24.947-19.15,26.773c-1.643,0.233-3.311,0.301-4.967,0.444
			c-6.33,0.365-12.039-1.954-17.829-4.034c-1.706-0.613-1.657-1.681-1.7-3.059c-0.053-1.681,0.299-2.76,2.151-3.324
			c4.595-1.403,9.114-3.055,13.679-4.559c2.826-0.93,4.977-2.498,3.996-5.77c-1.102-3.676-4.086-3.333-6.955-2.451
			c-4.438,1.363-8.815,2.92-13.259,4.258c-2.7,0.813-5.907-2.178-4.757-4.6C172.606,153.161,178.613,144.705,189.845,141.996z
			 M160.407,109.997c8.104,3.916,12.536,14.979,10.104,25.414c-1.788,7.674-5.527,14.518-9.27,21.354
			c-0.645,1.179-1.062,2.43-2.951,1.659c-1.466-0.598-2.71-0.964-2.598-2.957c0.141-2.488,0.034-5.467,0.034-7.467
			c-0.013,0-0.025,0-0.038,0c0-3,0.1-5.35-0.027-8.006c-0.127-2.63-1.502-4.638-4.229-4.675c-2.975-0.042-4.442,1.933-4.463,4.87
			c-0.035,4.826-0.07,9.651,0.01,14.477c0.031,1.867-0.373,2.814-2.419,3.557c-2.413,0.874-2.884-0.51-3.692-1.914
			c-4.971-8.631-10.229-17.15-9.978-27.672C131.267,112.882,146.477,103.266,160.407,109.997z M85.076,166.635
			c-1.678-12.059,6.01-22.563,18.336-25.056c8.285-1.675,20.1,3.792,25.381,11.813c1.733,2.633,3.221,5.432,4.998,8.033
			c1.193,1.749,1.163,2.961-0.139,4.8c-1.476,2.085-2.754,1.651-4.618,0.995c-4.222-1.488-8.505-2.801-12.787-4.11
			c-2.763-0.845-5.487-0.901-6.568,2.422c-1.04,3.196,0.739,4.869,3.724,5.803c4.43,1.386,8.76,3.095,13.202,4.437
			c1.877,0.568,2.692,1.309,2.748,3.396c0.056,2.077-0.738,2.985-2.551,3.561c-5.374,1.707-10.614,3.973-15.397,3.635
			C97.4,187.1,86.767,178.783,85.076,166.635z M146.945,208.527c0.293,6.613-1.155,12.887-4.037,18.783
			c-5.954,12.184-18.859,16.494-29.496,9.974c-11.568-7.09-14.531-21.62-6.491-32.394c5.983-8.016,14.825-11.387,23.885-14.395
			c1.979-0.656,2.142,0.989,3.001,1.801c1.174,1.105,1.074,2.128,0.082,3.422c-2.828,3.686-5.467,7.516-8.278,11.215
			c-2.062,2.713-2.964,5.632,0.15,7.807c2.98,2.08,5.228,0.002,7-2.537c2.376-3.401,4.761-6.801,7.284-10.094
			c0.945-1.234,1.176-3.369,4.033-2.413c2.807,0.938,3.043,2.536,2.889,4.845C146.878,205.864,146.951,207.199,146.945,208.527z
			 M138.119,178.851c0.195-6.87,6.434-12.891,13.297-12.833c7.377,0.062,13.113,6.027,12.976,13.492
			c-0.132,7.111-5.71,12.711-12.604,12.651C143.825,192.093,137.906,186.328,138.119,178.851z M175.72,239.921
			c-8.208-1.058-13.231-6.511-16.57-13.581c-2.659-5.631-3.795-11.672-3.337-18.523c1.162-2.125-2.561-6.453,2.479-7.859
			c4.645-1.295,4.631,3.569,6.668,5.605c2.204,2.203,3.791,5.025,5.638,7.584c1.747,2.419,4.082,3.043,6.491,1.412
			c2.571-1.742,2.32-4.219,0.646-6.549c-2.812-3.914-5.588-7.859-8.589-11.624c-1.464-1.837-0.927-3.051,0.143-4.78
			c1.199-1.938,2.403-1.092,3.754-0.617c8.064,2.834,15.724,6.354,21.391,13.08c5.765,6.843,6.766,16.348,2.649,24.266
			C192.951,236.275,184.512,241.054,175.72,239.921z"/>
	</g>
</g>
</svg>
