<?xml version="1.0" encoding="utf-8"?>
<!-- Generator: Adobe Illustrator 16.0.4, SVG Export Plug-In . SVG Version: 6.00 Build 0)  -->
<!DOCTYPE svg PUBLIC "-//W3C//DTD SVG 1.1//EN" "http://www.w3.org/Graphics/SVG/1.1/DTD/svg11.dtd">
<svg version="1.1" id="图层_1" xmlns="http://www.w3.org/2000/svg" xmlns:xlink="http://www.w3.org/1999/xlink" x="0px" y="0px"
	 width="300px" height="300px" viewBox="0 0 300 300" enable-background="new 0 0 300 300" xml:space="preserve">
<g>
	<path d="M42.062,53.012c1.793-1.521,1.953-4.142,0.357-5.854c-1.593-1.71-4.34-1.864-6.132-0.341
		c-8.473,7.192-16.134,15.37-22.768,24.308C9.786,76.152,6.317,81.5,3.209,87.016c-3.033,5.378-2.448,11.958,1.492,16.763
		c0.014,0.017,0.028,0.035,0.044,0.052c0,0,18.024,21.284,18.048,21.312c4.879,5.758,13.497,7.542,20.352,3.973l21.353-10.27
		c-2.114,8.121-5.167,21.373-7.764,38.602c-4.055,26.896-7.671,68.892-1.873,116.223c0.601,4.923,1.297,9.836,2.063,14.604
		c1.078,6.687,7.003,11.537,14.088,11.537h34.875c6.732,0,12.454-4.373,13.915-10.638c1.172-5.054,2.608-10.142,4.152-14.719
		c3.887-11.521,12.225-30.841,24.427-30.841c12.2,0,20.538,19.32,24.424,30.843c1.543,4.575,2.978,9.663,4.152,14.72
		c1.46,6.262,7.181,10.635,13.912,10.635h34.877c7.085,0,13.011-4.851,14.088-11.537c2.501-15.525,4.042-31.197,4.716-46.892
		c0.101-2.29-1.764-4.221-4.163-4.312c-2.39-0.094-4.421,1.684-4.519,3.974c-0.407,9.406-1.135,18.807-2.172,27.996h-53.623
		c-8.076-22.377-18.732-33.718-31.695-33.718c-12.963,0-23.618,11.341-31.695,33.718H63.062
		c-9.82-86.999,12.072-156.075,12.321-156.849c1.113-3.439-2.725-6.557-6.106-4.93L56.45,113.43L22.536,73.383
		C28.332,65.944,34.888,59.103,42.062,53.012z M232.673,277.333c-0.438,3.266-0.917,6.508-1.428,9.683
		c-0.412,2.566-2.776,4.504-5.497,4.504h-34.877c-2.628,0-4.858-1.706-5.427-4.144c-0.798-3.432-1.685-6.792-2.648-10.043H232.673z
		 M113.966,277.333c-0.966,3.251-1.851,6.611-2.647,10.041c-0.568,2.439-2.802,4.146-5.429,4.146H71.015
		c-2.721,0-5.084-1.938-5.499-4.504c-0.513-3.175-0.99-6.417-1.428-9.683H113.966z M48.507,117.25l-9.342,4.491
		c-0.05,0.024-0.099,0.048-0.147,0.074c-3.164,1.658-7.181,0.891-9.408-1.819c-0.011-0.015-0.024-0.03-0.038-0.046L11.528,98.646
		c-1.796-2.21-2.06-5.232-0.666-7.705c2.018-3.58,4.198-7.085,6.505-10.466L48.507,117.25z"/>
	<g>
		<path fill="none" d="M279.396,80.476l-31.143,36.775l9.344,4.491c0.05,0.024,0.099,0.051,0.147,0.074
			c3.142,1.66,7.187,0.896,9.405-1.819c0.015-0.015,0.028-0.03,0.042-0.046l18.043-21.305c1.798-2.209,2.059-5.231,0.665-7.702
			C283.883,87.362,281.705,83.856,279.396,80.476z"/>
		<path d="M92.47,17.065c-8.109,2.132-24.345,7.448-42.009,19.116c-1.97,1.303-2.464,3.886-1.097,5.77
			c1.364,1.883,4.071,2.351,6.044,1.046c15.518-10.249,29.794-15.265,37.78-17.503l10.384-3.308
			C101.736,18.201,96.995,15.876,92.47,17.065z"/>
		<path d="M293.555,87.014c-3.107-5.514-6.576-10.862-10.312-15.893c-27.726-37.346-64.449-50.246-78.948-54.057
			c-4.727-1.243-9.681,1.336-11.33,5.632l8.536,2.428c0.146-0.074,0.311-0.11,0.485-0.065c13.271,3.489,46.39,15.103,72.241,48.323
			l-33.912,40.047c0,0-12.771-6.143-12.828-6.169c-3.387-1.628-7.222,1.49-6.108,4.927c0.152,0.466,15.115,47.467,14.876,112.423
			c-0.01,2.289,1.931,4.15,4.345,4.161c2.395,0,4.338-1.848,4.346-4.134c0.183-49.47-8.319-88.819-12.71-105.808
			c0,0,21.364,10.275,21.382,10.284c6.967,3.35,15.432,1.984,20.354-3.973l18.048-21.312c0.013-0.017,0.029-0.035,0.042-0.052
			C296,98.975,296.587,92.394,293.555,87.014z M285.234,98.646l-18.043,21.305c-0.014,0.017-0.027,0.031-0.042,0.046
			c-2.219,2.714-6.264,3.479-9.405,1.819c-0.049-0.023-0.098-0.05-0.147-0.074l-9.344-4.491l31.143-36.775
			c2.31,3.381,4.487,6.886,6.504,10.468C287.293,93.415,287.032,96.436,285.234,98.646z"/>
	</g>
	<g>
		<g>
			<path d="M203.069,33.913l-8.333-16.065C194.046,5.535,170.652,0,147.412,0c-23.217,0-46.585,5.526-47.321,17.811l-8.302,16.021
				c-2.332,4.022-1.294,8.972,2.558,12.075l30.166,23.072c0.44,0.336,0.999,0.515,1.574,0.515c0.151,0,0.298-0.012,0.436-0.037
				c0.726-0.118,1.345-0.523,1.673-1.092l8.825-13.163h20.771l8.824,13.163c0.332,0.569,0.948,0.974,1.673,1.092
				c0.152,0.024,0.298,0.037,0.451,0.037c0.572,0,1.132-0.179,1.563-0.515l30.212-23.104
				C204.324,42.808,205.357,37.858,203.069,33.913z M149.196,6.436c22.405,0,33.428,4.322,38.035,9.891l-32.604,21.945
				l-11.845-0.329l-32.588-20.918C117.945,9.692,126.79,6.436,149.196,6.436z M124.126,58.879l-22.653-17.604
				c-2.098-1.686-2.667-3.465-1.343-5.75l5.714-11.898l28.292,18.243L124.126,58.879z M139.389,49.056l2.369-4.089h11.293
				l2.369,4.089H139.389z M195.014,40.473l-25.771,19.541l-9.691-16.885l30.931-19.969l5.889,12.153
				C197.447,38.719,197.447,38.719,195.014,40.473z"/>
		</g>
	</g>
</g>
</svg>
