<?xml version="1.0" encoding="utf-8"?>
<!-- Generator: Adobe Illustrator 23.0.1, SVG Export Plug-In . SVG Version: 6.00 Build 0)  -->
<svg version="1.1" id="图层_1" xmlns="http://www.w3.org/2000/svg" xmlns:xlink="http://www.w3.org/1999/xlink" x="0px" y="0px"
	 viewBox="0 0 300 300" style="enable-background:new 0 0 300 300;" xml:space="preserve">
<style type="text/css">
	.st0{fill:#FFFFFF;stroke:#000000;stroke-width:10;stroke-linecap:round;stroke-linejoin:round;stroke-miterlimit:10;}
</style>
<g>
	<g>
		<g>
			<path d="M202.7,44.5l-8.3-16.1c-0.7-12.3-24.1-17.8-47.3-17.8c-23.2,0-46.6,5.5-47.3,17.8l-8.3,16c-2.3,4-1.3,9,2.6,12.1
				l30.2,23.1c0.4,0.3,1,0.5,1.6,0.5c0.2,0,0.3,0,0.4,0c0.7-0.1,1.3-0.5,1.7-1.1l8.8-13.2h20.8l8.8,13.2c0.3,0.6,0.9,1,1.7,1.1
				c0.2,0,0.3,0,0.5,0c0.6,0,1.1-0.2,1.6-0.5l30.2-23.1C203.9,53.3,205,48.4,202.7,44.5z M148.8,17c22.4,0,33.4,4.3,38,9.9
				l-32.6,21.9l-11.8-0.3l-32.6-20.9C117.6,20.2,126.4,17,148.8,17z M123.7,69.4l-22.7-17.6c-2.1-1.7-2.7-3.5-1.3-5.8l5.7-11.9
				l28.3,18.2L123.7,69.4z M139,59.6l2.4-4.1h11.3l2.4,4.1H139z M194.6,51l-25.8,19.5l-9.7-16.9l30.9-20l5.9,12.2
				C197.1,49.3,197.1,49.3,194.6,51z"/>
		</g>
	</g>
	<path d="M62.3,243.2c2.8-55,14.1-92.5,14.3-93.1c1.1-3.6-2.7-6.9-6.1-5.2l-12.9,6.5l-34.1-42.2c5.8-7.8,12.4-15,19.6-21.5
		c1.8-1.6,2-4.4,0.4-6.2c-1.6-1.8-4.4-2-6.2-0.4c-8.5,7.6-16.2,16.2-22.9,25.6c-3.8,5.3-7.2,10.9-10.4,16.7
		c-3,5.7-2.5,12.6,1.5,17.7c0,0,0,0,0,0.1c0,0,18.1,22.4,18.1,22.4c4.9,6.1,13.6,7.9,20.5,4.2l21.5-10.8c-2.1,8.5-5.2,22.5-7.8,40.7
		c-1.7,12.1-3.4,27-4.3,44c0.8-0.2,1.6-0.2,2.5-0.2C58.4,241.5,60.5,242.1,62.3,243.2z M40.3,160.2c-0.1,0-0.1,0.1-0.1,0.1
		c-3.2,1.7-7.2,0.9-9.5-1.9c0,0,0,0,0,0l-18.1-22.4c-1.8-2.3-2.1-5.5-0.7-8.1c2-3.8,4.2-7.5,6.5-11l31.3,38.7L40.3,160.2z"/>
	<path d="M100.1,50.5c-1.9-0.9-4.1-1.1-6.3-0.5c-8.1,2.2-24.5,7.8-42.2,20.1c-2,1.4-2.5,4.1-1.1,6.1c1.4,2,4.1,2.5,6.1,1.1
		c15.6-10.8,29.9-16.1,38-18.4l1.5-0.5C95.7,54.3,97.8,50.3,100.1,50.5z"/>
	<path d="M295.9,123.6c-3.1-5.8-6.6-11.4-10.4-16.7C257.7,67.5,220.8,54,206.2,50c-4.7-1.3-9.7,1.4-11.4,5.9l1.3,0.4
		c0.7-1.2,1.4-2.5,2.1-3.7c2.8-5.2,7.2,0.5,6.4,6.1c13.8,3.9,46.3,16.3,71.8,50.7l-34.1,42.2c0,0-12.8-6.5-12.9-6.5
		c-3.4-1.7-7.3,1.6-6.1,5.2c0.2,0.5,15.2,50,14.9,118.4c0,2.4,1.9,4.4,4.4,4.4c2.4,0,4.4-1.9,4.4-4.4c0.2-52.1-8.4-93.5-12.8-111.4
		c0,0,21.5,10.8,21.5,10.8c7,3.5,15.5,2.1,20.5-4.2l18.1-22.4c0,0,0,0,0-0.1C298.3,136.2,298.9,129.3,295.9,123.6z M287.5,135.9
		l-18.1,22.4c0,0,0,0,0,0c-0.7,0.9-1.6,1.6-2.5,2.1c-0.6,0.3-1.2,0.5-1.8,0.6c-0.8,0.2-1.7,0.2-2.6,0.1c-0.4-0.1-0.9-0.2-1.3-0.3
		c-0.4-0.1-0.8-0.3-1.2-0.5c0,0-0.1-0.1-0.1-0.1l-9.4-4.7l31.3-38.7c2.3,3.6,4.5,7.3,6.5,11C289.6,130.3,289.3,133.5,287.5,135.9z"
		/>
	<path d="M61.7,269.6c0-9.5,0.2-18.6,0.6-27.4c-1.8-1.3-4-2.1-6.2-2.1c-0.8,0-1.7,0.1-2.5,0.3c-0.4,9.6-0.6,19.7-0.7,30.3
		c1,0.3,2,0.5,3.1,0.5C58.1,271.3,60,270.7,61.7,269.6z"/>
</g>
<path class="st0" d="M57.8,267.4c0,0,102.5,34.4,183.2,1.6"/>
</svg>
