<?xml version="1.0" encoding="utf-8"?>
<!-- Generator: Adobe Illustrator 16.0.4, SVG Export Plug-In . SVG Version: 6.00 Build 0)  -->
<!DOCTYPE svg PUBLIC "-//W3C//DTD SVG 1.1//EN" "http://www.w3.org/Graphics/SVG/1.1/DTD/svg11.dtd">
<svg version="1.1" id="图层_1" xmlns="http://www.w3.org/2000/svg" xmlns:xlink="http://www.w3.org/1999/xlink" x="0px" y="0px"
	 width="300px" height="300px" viewBox="0 0 300 300" enable-background="new 0 0 300 300" xml:space="preserve">
<g>
	<path d="M68.183,164.439c-15.041,0-27.273-12.23-27.273-27.271c0-3.765-3.053-6.819-6.818-6.819c-3.763,0-6.817,3.054-6.817,6.819
		c0,22.556,18.355,40.909,40.909,40.909c3.775,0,6.816-3.056,6.816-6.818S71.946,164.439,68.183,164.439z"/>
	<path d="M231.819,164.439c-15.041,0-27.273-12.23-27.273-27.271c0-3.765-3.053-6.819-6.819-6.819c-3.763,0-6.816,3.054-6.816,6.819
		c0,22.556,18.355,40.909,40.909,40.909c3.775,0,6.816-3.056,6.816-6.818S235.582,164.439,231.819,164.439z"/>
	<path d="M231.819,68.985c-12.99,0-25.141,3.655-35.485,9.985c-2.535-1.215-5.671-0.781-7.771,1.318
		c-21.286,21.289-55.868,21.261-77.139,0c-2.097-2.096-5.228-2.532-7.763-1.322c-10.343-6.328-22.491-9.981-35.479-9.981
		C30.586,68.985,0,99.572,0,137.168c0,37.597,30.586,68.181,68.183,68.181s68.181-30.584,68.181-68.181
		c0-10.991-2.63-21.374-7.269-30.577c6.783,2.171,13.836,3.276,20.892,3.276c7.072,0,14.135-1.108,20.924-3.285
		c-4.642,9.206-7.273,19.591-7.273,30.585c0,37.597,30.587,68.181,68.183,68.181c37.597,0,68.181-30.584,68.181-68.181
		C300,99.572,269.416,68.985,231.819,68.985z M68.183,191.713c-30.082,0-54.547-24.464-54.547-54.545
		c0-30.083,24.465-54.547,54.547-54.547c30.08,0,54.545,24.464,54.545,54.547C122.728,167.249,98.262,191.713,68.183,191.713z
		 M231.819,191.713c-30.083,0-54.547-24.464-54.547-54.545c0-30.083,24.464-54.547,54.547-54.547
		c30.081,0,54.545,24.464,54.545,54.547C286.364,167.249,261.9,191.713,231.819,191.713z"/>
</g>
</svg>
