<?xml version="1.0" encoding="utf-8"?>
<!-- Generator: Adobe Illustrator 16.0.4, SVG Export Plug-In . SVG Version: 6.00 Build 0)  -->
<!DOCTYPE svg PUBLIC "-//W3C//DTD SVG 1.1//EN" "http://www.w3.org/Graphics/SVG/1.1/DTD/svg11.dtd">
<svg version="1.1" id="图层_1" xmlns="http://www.w3.org/2000/svg" xmlns:xlink="http://www.w3.org/1999/xlink" x="0px" y="0px"
	 width="300px" height="300px" viewBox="0 0 300 300" enable-background="new 0 0 300 300" xml:space="preserve">
<g>
	<g>
		<path fill="none" d="M156.727,40.408c-0.718-1.108-0.946-2.463-0.631-3.746c0.315-1.282,1.146-2.376,2.295-3.025l28.878-16.302
			c2.302-1.3,5.222-0.487,6.522,1.815c1.299,2.302,0.486,5.222-1.816,6.522l-24.447,13.801c0,0,4.645,7.173,4.653,7.186
			l7.493,11.572l28.275-30.26V9.574H92.051v18.397l28.273,30.26l7.471-11.535c0.009-0.016,0.016-0.031,0.025-0.045
			s0.021-0.027,0.031-0.042l4.621-7.136l-24.447-13.801c-2.303-1.3-3.115-4.22-1.816-6.522c1.301-2.302,4.221-3.115,6.523-1.815
			l28.877,16.302c1.148,0.648,1.979,1.744,2.295,3.026c0.314,1.282,0.087,2.637-0.631,3.745l-4.812,7.431l23.078,0.001
			L156.727,40.408z"/>
		<path d="M268.67,35.726l-51.146-9.821V4.787c0-2.644-2.143-4.787-4.787-4.787H87.264c-2.645,0-4.787,2.144-4.787,4.787v21.118
			L31.33,35.726c-10.783,2.071-19.557,12.688-19.557,23.667v219.863c0,11.438,9.307,20.744,20.745,20.744h234.963
			c11.438,0,20.745-9.307,20.745-20.744V59.393C288.227,48.414,279.453,37.796,268.67,35.726z M278.651,279.256
			c0,6.158-5.011,11.17-11.17,11.17H163.834h-9.047h-9.574h-6.752H32.519c-6.159,0-11.17-5.012-11.17-11.17V59.393
			c0-6.505,5.397-13.038,11.786-14.266L85.57,35.06l31.943,34.188c1.006,1.077,2.453,1.629,3.92,1.5
			c1.469-0.13,2.795-0.929,3.596-2.167l8.229-12.705l5.203-8.037l4.812-7.431c0.718-1.108,0.945-2.463,0.631-3.745
			c-0.315-1.282-1.146-2.377-2.295-3.026l-28.877-16.302c-2.303-1.3-5.223-0.487-6.523,1.815c-1.299,2.303-0.486,5.223,1.816,6.522
			l24.447,13.801l-4.621,7.136c-0.01,0.015-0.021,0.027-0.031,0.042s-0.017,0.03-0.025,0.045l-7.471,11.535l-28.273-30.26V9.574
			h115.898v18.398l-28.275,30.26l-7.493-11.572c-0.009-0.013-4.653-7.186-4.653-7.186l24.447-13.801
			c2.303-1.3,3.115-4.22,1.816-6.522c-1.301-2.303-4.221-3.115-6.522-1.815l-28.878,16.302c-1.148,0.649-1.979,1.744-2.295,3.025
			c-0.315,1.282-0.087,2.637,0.631,3.746l4.812,7.431l5.203,8.036l8.229,12.705c0.801,1.237,2.127,2.036,3.596,2.167
			c0.141,0.013,0.281,0.019,0.422,0.019c1.32,0,2.589-0.546,3.498-1.519L214.43,35.06l52.436,10.068
			c6.389,1.227,11.786,7.76,11.786,14.266V279.256z"/>
		<path d="M190.936,74.255l0.607-0.563C191.324,73.863,191.121,74.049,190.936,74.255z"/>
	</g>
	<path d="M188.656,129.711c-11.277-2.84-23.224-0.117-29.728,6.775c-0.34,0.359-0.713,0.681-1.114,0.962
		c1.445-14.501,13.717-25.863,28.591-25.863c2.267,0,4.104-1.837,4.104-4.104c0-2.268-1.838-4.105-4.104-4.105
		c-11.958,0-22.604,5.711-29.359,14.548c-2.759-12.985-14.312-22.758-28.107-22.758H112.52c-2.267,0-4.105,1.837-4.105,4.104
		c0,15.844,12.89,28.73,28.733,28.73h14.428c-1.079,3.04-1.771,6.264-2.014,9.608c-0.494-0.319-0.954-0.695-1.362-1.128
		c-6.845-7.25-17.989-10.084-29.084-7.396c-11.904,2.884-21.02,11.558-24.384,23.202c-2.975,10.295-3.501,22.887-1.443,34.551
		c2.22,12.595,7.145,24.48,13.868,33.47c7.218,9.652,15.827,14.968,24.239,14.968c3.371,0,6.607-0.825,9.618-2.454
		c3.886-2.105,8.227-3.218,12.552-3.218c4.326,0,8.67,1.114,12.555,3.214c3,1.631,6.236,2.458,9.617,2.458
		c8.414,0,17.021-5.315,24.24-14.968c6.723-8.989,11.648-20.878,13.867-33.473c1.983-11.244,1.568-23.461-1.141-33.519
		C209.482,141.352,200.719,132.748,188.656,129.711z M137.148,119.794c-9.911,0-18.204-7.062-20.111-16.419h11.901
		c9.911,0,18.204,7.062,20.112,16.419H137.148z M205.762,185.409c-2.002,11.354-6.392,22.002-12.357,29.981
		c-5.55,7.419-11.988,11.675-17.666,11.675c-1.996,0-3.912-0.491-5.703-1.467c-5.092-2.752-10.784-4.205-16.469-4.205
		c-5.686,0-11.378,1.455-16.459,4.205c-1.798,0.974-3.72,1.467-5.711,1.467c-5.678,0-12.117-4.256-17.665-11.675
		c-5.968-7.979-10.356-18.626-12.357-29.979c-1.821-10.32-1.354-21.849,1.245-30.848c2.574-8.908,9.292-15.286,18.431-17.501
		c8.113-1.966,16.427,0.018,21.181,5.054c2.93,3.103,7.06,4.882,11.33,4.884h0.006h0.003c4.274-0.001,8.403-1.78,11.329-4.88
		c4.457-4.723,13.402-6.551,21.752-4.449c5.345,1.346,14.806,5.444,18.127,17.777C207.149,164.256,207.518,175.456,205.762,185.409z
		"/>
</g>
</svg>
