<?xml version="1.0" encoding="utf-8"?>
<!-- Generator: Adobe Illustrator 16.0.4, SVG Export Plug-In . SVG Version: 6.00 Build 0)  -->
<!DOCTYPE svg PUBLIC "-//W3C//DTD SVG 1.1//EN" "http://www.w3.org/Graphics/SVG/1.1/DTD/svg11.dtd">
<svg version="1.1" id="图层_1" xmlns="http://www.w3.org/2000/svg" xmlns:xlink="http://www.w3.org/1999/xlink" x="0px" y="0px"
	 width="300px" height="300px" viewBox="0 0 300 300" enable-background="new 0 0 300 300" xml:space="preserve">
<g>
	<path d="M238.086,179.865c-1.48-3.663-5.653-5.435-9.319-3.95c-3.664,1.48-5.433,5.652-3.948,9.319l0.104,0.26
		c1.125,2.785,3.805,4.476,6.638,4.476c0.893,0,1.802-0.169,2.68-0.525c3.664-1.483,5.436-5.655,3.952-9.319L238.086,179.865z"/>
	<g>
		<path d="M40.438,255.244h74.063h14.302h44.463h14.304h74.064h14.301h7.468c9.405,0,17.059-7.651,17.059-17.059v-19.122
			c0-9.404-7.65-17.056-17.059-17.056h-7.822l-21.838-103.42c-3.072-14.561-11.132-27.742-22.691-37.117
			c-11.561-9.375-26.124-14.536-41.005-14.536c-2.146,0-4.174,0.959-5.532,2.616c-8.576,10.445-21.244,16.537-34.758,16.713
			c-0.198,0.003-0.401,0.003-0.6,0.003c-13.293,0-25.867-5.739-34.578-15.804l-0.912-1.055c-1.362-1.57-3.338-2.473-5.413-2.473
			c-31.194,0-58.085,22.236-63.946,52.875L24.764,202.008h-7.707C7.65,202.008,0,209.659,0,219.063v19.122
			c0,9.407,7.65,17.059,17.058,17.059h9.077H40.438z M38.407,188.75h164.959c3.951,0,7.155-2.118,7.155-6.069
			c0-3.953-3.204-6.072-7.155-6.072H41.143l13.966-74.111c4.371-22.863,27.025-42.994,50.004-44.413
			c11.544,12.466,27.776,19.469,44.832,19.23c16.537-0.215,32.109-7.178,43.264-19.226c22.529,1.417,45.082,21.144,49.792,43.456
			l20.125,100.463H36.078L38.407,188.75z M11.662,240.098v-22.799c0-1.803,1.259-3.271,2.802-3.271H286.54
			c1.544,0,2.802,1.469,2.802,3.271v22.799c0,1.807-1.258,3.273-2.802,3.273H14.464C12.917,243.371,11.662,241.904,11.662,240.098z"
			/>
	</g>
</g>
</svg>
