<?xml version="1.0" encoding="utf-8"?>
<!-- Generator: Adobe Illustrator 16.0.4, SVG Export Plug-In . SVG Version: 6.00 Build 0)  -->
<!DOCTYPE svg PUBLIC "-//W3C//DTD SVG 1.1//EN" "http://www.w3.org/Graphics/SVG/1.1/DTD/svg11.dtd">
<svg version="1.1" id="图层_1" xmlns="http://www.w3.org/2000/svg" xmlns:xlink="http://www.w3.org/1999/xlink" x="0px" y="0px"
	 width="300px" height="300px" viewBox="0 0 300 300" enable-background="new 0 0 300 300" xml:space="preserve">
<g>
	<g>
		<g>
			<path d="M110.276,9.391l18.78,37.58h41.179l18.781-37.58H110.276L110.276,9.391z M121.965,53.758L98.617,7.033
				c-0.401-0.685-0.626-1.486-0.626-2.338c0-2.592,2.103-4.695,4.695-4.695h93.901v0.02c0.704,0,1.419,0.156,2.095,0.489
				c2.308,1.155,3.247,3.962,2.093,6.27l-23.271,46.561c-0.684,1.761-2.387,3.012-4.382,3.012h-46.951v0.011
				C124.431,56.35,122.776,55.402,121.965,53.758L121.965,53.758z M134.299,75.141l-17.234,199.14l32.571,16.308l32.611-16.308
				l-17.293-199.14H134.299L134.299,75.141z M107.44,276.618L125.3,70.26c0.087-2.504,2.172-4.52,4.696-4.52h39.262v0.01
				c2.407,0,4.461,1.848,4.676,4.284l17.93,206.583h-0.01c0.156,1.85-0.802,3.709-2.563,4.588l-37.452,18.723l-0.099,0.05
				l-0.009,0.008c-1.273,0.637-2.817,0.686-4.177,0l-37.17-18.613C108.506,280.629,107.263,278.731,107.44,276.618z"/>
			<path d="M128.773,271.855c-2.319-1.154-3.257-3.971-2.103-6.29c1.153-2.317,3.971-3.257,6.289-2.103l16.688,8.344l16.688-8.344
				c2.316-1.154,5.134-0.205,6.288,2.103c1.155,2.319,0.215,5.136-2.103,6.29l-18.78,9.38c-1.271,0.638-2.807,0.686-4.186,0
				L128.773,271.855z"/>
			<path d="M140.236,37.58c-2.592,0-4.695-2.103-4.695-4.695c0-2.591,2.103-4.694,4.695-4.694h18.78
				c2.592,0,4.694,2.104,4.694,4.694c0,2.592-2.103,4.695-4.694,4.695H140.236z"/>
		</g>
	</g>
</g>
</svg>
