<?xml version="1.0" encoding="utf-8"?>
<!-- Generator: Adobe Illustrator 16.0.4, SVG Export Plug-In . SVG Version: 6.00 Build 0)  -->
<!DOCTYPE svg PUBLIC "-//W3C//DTD SVG 1.1//EN" "http://www.w3.org/Graphics/SVG/1.1/DTD/svg11.dtd">
<svg version="1.1" id="图层_1" xmlns="http://www.w3.org/2000/svg" xmlns:xlink="http://www.w3.org/1999/xlink" x="0px" y="0px"
	 width="300px" height="300px" viewBox="0 0 300 300" enable-background="new 0 0 300 300" xml:space="preserve">
<g>
	<g>
		<g>
			<path d="M271.078,141.154c2.616,0,4.736-2.121,4.736-4.737V68.029c0-0.342-0.013-0.674-0.035-1
				c-0.598-14.312-13.715-27.191-38.987-38.273c-15.649-6.862-30.962-10.83-35.082-11.836L181.209,0.752
				c-0.003-0.002-0.006-0.004-0.009-0.006c-0.192-0.15-0.393-0.279-0.599-0.396c-0.029-0.017-0.057-0.034-0.086-0.05
				c-0.207-0.111-0.42-0.204-0.637-0.282c-0.033-0.012-0.066-0.023-0.102-0.035c-0.221-0.074-0.445-0.131-0.672-0.172
				c-0.033-0.006-0.066-0.01-0.101-0.016c-0.233-0.035-0.469-0.058-0.704-0.059c-0.009,0-0.017-0.002-0.025-0.002h-56.551
				c-0.01,0-0.02,0.002-0.029,0.002C121.463-0.262,121.23-0.24,121-0.205c-0.037,0.006-0.073,0.01-0.109,0.016
				c-0.225,0.041-0.447,0.099-0.666,0.171c-0.035,0.013-0.07,0.024-0.105,0.037c-0.217,0.079-0.429,0.171-0.635,0.282
				c-0.029,0.015-0.056,0.032-0.084,0.049c-0.209,0.117-0.414,0.249-0.609,0.402L98.256,16.945
				c-4.049,1.064-19.412,5.319-35.115,12.495c-14.789,6.761-25.402,14.056-31.778,21.812c-0.08,0.088-0.156,0.18-0.229,0.274
				c-4.356,5.392-6.67,11.004-6.912,16.815c-0.023,0.327-0.035,0.658-0.035,1v153.031V247.4c0,2.139,1.434,4.013,3.496,4.572
				l32.385,8.787v5.193c0,0,0,0.002,0,0.004v7.805c0,2.617,2.121,4.736,4.736,4.736h4.268v16.104v0.396
				c0,2.617,2.121,4.736,4.736,4.736h0.002h152.381h0.001c2.616,0,4.737-2.119,4.737-4.736v-16.5h4.268
				c2.617,0,4.736-2.119,4.736-4.736v-7.633v-5.369l32.385-8.786c2.063-0.56,3.496-2.433,3.496-4.571v-25.027v-70.496
				c0-2.617-2.12-4.736-4.737-4.736c-2.616,0-4.736,2.121-4.736,4.736v66.836l-26.408,6.898V99.953c0-0.078-0.003-0.172-0.007-0.251
				c-0.056-1.128-1.007-26.742,24.35-39.376c1.223,2.301,1.945,4.686,2.041,7.145c0.002,0.051,0.005,0.104,0.008,0.154
				c0.01,0.132,0.016,0.266,0.016,0.404v68.388C266.341,139.033,268.461,141.154,271.078,141.154z M239.934,235.404l26.407-6.898
				v15.271l-26.407,7.166V235.404z M178.92,11.013l13.535,10.673l-36.516,36.129C159.974,36.3,173.105,18.189,178.92,11.013z
				 M168.277,9.209c-5.543,7.403-13.332,19.438-18.277,34.002c-4.945-14.562-12.734-26.599-18.277-34.002H168.277z M121.08,11.014
				c5.815,7.178,18.946,25.287,22.98,46.801l-36.515-36.129L121.08,11.014z M60.73,251.123l-27.07-7.346v-15.301l27.07,6.941
				V251.123z M60.738,99.686c-0.006,0.089-0.008,0.178-0.008,0.267v125.685l-27.07-6.939V69.342c0-0.139,0.006-0.273,0.016-0.406
				c0.002-0.051,0.006-0.102,0.008-0.152c0.112-2.906,1.097-5.723,2.751-8.435C61.742,72.99,60.793,98.573,60.738,99.686z
				 M90.605,289.863H78.545v-10.971h12.061V289.863z M199.824,290.26h-99.745v-11.764h7.089c2.617,0,4.736-2.12,4.736-4.736
				s-2.12-4.736-4.736-4.736H73.809h-3.604v-2.586c0.007-0.104,0.018-0.205,0.018-0.311v-34.381c0-0.071-0.015-0.141-0.018-0.211
				V100.057c0.052-1.291,0.214-9.608-3.443-19.466c-3.185-8.581-9.903-19.856-24.005-27.62
				c14.223-12.87,41.627-22.494,56.231-26.426l46.275,45.787v196.691h-23.286c-2.617,0-4.736,2.12-4.736,4.736
				s2.119,4.736,4.736,4.736h77.846v11.764H199.824z M221.358,289.863h-12.061v-10.971h12.061V289.863z M233.903,80.59
				c-3.659,9.859-3.495,18.18-3.444,19.468v168.964h-4.267h-0.001l0,0h-71.455V72.331l46.315-45.825
				c14.934,3.729,43.332,13.184,57.22,26.268C243.924,60.542,237.115,71.936,233.903,80.59z"/>
			<path d="M167.677,84.489h-0.905c-2.617,0-4.737,2.12-4.737,4.737c0,2.616,2.12,4.736,4.737,4.736h0.905
				c2.616,0,4.737-2.12,4.737-4.736C172.414,86.609,170.293,84.489,167.677,84.489z"/>
			<path d="M167.677,119.088h-0.905c-2.617,0-4.737,2.119-4.737,4.736s2.12,4.736,4.737,4.736h0.905c2.616,0,4.737-2.12,4.737-4.736
				S170.293,119.088,167.677,119.088z"/>
			<path d="M167.677,153.686h-0.905c-2.617,0-4.737,2.12-4.737,4.736s2.12,4.736,4.737,4.736h0.905c2.616,0,4.737-2.12,4.737-4.736
				S170.293,153.686,167.677,153.686z"/>
			<path d="M167.677,222.88h-0.905c-2.617,0-4.737,2.12-4.737,4.736s2.12,4.737,4.737,4.737h0.905c2.616,0,4.737-2.121,4.737-4.737
				S170.293,222.88,167.677,222.88z"/>
			<path d="M167.677,188.282h-0.905c-2.617,0-4.737,2.12-4.737,4.736c0,2.617,2.12,4.737,4.737,4.737h0.905
				c2.616,0,4.737-2.12,4.737-4.737C172.414,190.402,170.293,188.282,167.677,188.282z"/>
			<path d="M187.846,199.062c-2.166,1.466-2.734,4.41-1.27,6.577l21.361,31.579c0.916,1.354,2.408,2.083,3.928,2.083
				c0.914,0,1.836-0.264,2.65-0.813c2.166-1.466,2.734-4.41,1.27-6.577l-21.361-31.579
				C192.958,198.162,190.014,197.596,187.846,199.062z"/>
			<path d="M112.154,199.062c-2.168-1.468-5.111-0.897-6.577,1.27L84.216,231.91c-1.466,2.167-0.897,5.111,1.27,6.577
				c0.813,0.551,1.736,0.813,2.649,0.813c1.52,0,3.014-0.729,3.928-2.083l21.361-31.579
				C114.891,203.472,114.322,200.527,112.154,199.062z"/>
		</g>
	</g>
</g>
</svg>
