<?xml version="1.0" encoding="utf-8"?>
<!-- Generator: Adobe Illustrator 16.0.4, SVG Export Plug-In . SVG Version: 6.00 Build 0)  -->
<!DOCTYPE svg PUBLIC "-//W3C//DTD SVG 1.1//EN" "http://www.w3.org/Graphics/SVG/1.1/DTD/svg11.dtd">
<svg version="1.1" id="图层_1" xmlns="http://www.w3.org/2000/svg" xmlns:xlink="http://www.w3.org/1999/xlink" x="0px" y="0px"
	 width="300px" height="300px" viewBox="0 0 300 300" enable-background="new 0 0 300 300" xml:space="preserve">
<g>
	<path d="M268.67,35.726l-51.146-9.821V4.787c0-2.644-2.143-4.787-4.787-4.787H87.264c-2.644,0-4.787,2.144-4.787,4.787v21.118
		L31.33,35.726c-10.783,2.071-19.556,12.688-19.556,23.667v219.863c0,11.438,9.307,20.744,20.745,20.744h234.963
		c11.438,0,20.745-9.307,20.745-20.744V59.393C288.227,48.414,279.453,37.796,268.67,35.726z M92.051,9.574h115.898v18.398
		l-28.275,30.26l-7.493-11.572c-0.009-0.013-4.653-7.186-4.653-7.186l24.447-13.801c2.303-1.3,3.115-4.22,1.816-6.522
		c-1.301-2.303-4.221-3.115-6.522-1.815l-28.878,16.302c-1.148,0.649-1.979,1.744-2.295,3.025c-0.315,1.282-0.087,2.637,0.631,3.746
		l4.812,7.431L150,55.311l-11.539-7.472l4.812-7.431c0.718-1.108,0.945-2.463,0.631-3.745c-0.315-1.282-1.146-2.377-2.295-3.026
		l-28.877-16.302c-2.302-1.3-5.223-0.487-6.522,1.815c-1.299,2.303-0.487,5.223,1.815,6.522l24.447,13.801l-4.621,7.136
		c-0.01,0.015-0.021,0.027-0.031,0.042c-0.009,0.015-0.017,0.03-0.026,0.045l-7.47,11.535l-28.274-30.26V9.574z M154.787,198.762
		h34.905v41.045h-34.905V198.762z M199.268,198.762h34.904v41.045h-34.904V198.762z M199.268,189.188v-41.045h34.904v41.045H199.268
		z M189.692,189.188h-34.905v-41.045h34.905V189.188z M154.787,138.568V97.524h34.905v41.044H154.787z M21.349,279.256V59.393
		c0-6.505,5.397-13.038,11.786-14.266L85.57,35.06l31.943,34.188c1.006,1.077,2.453,1.629,3.92,1.5
		c1.468-0.13,2.794-0.929,3.596-2.167l8.228-12.705l11.956,7.742v226.809H32.519C26.359,290.426,21.349,285.414,21.349,279.256z
		 M278.651,279.256c0,6.158-5.011,11.17-11.17,11.17H154.787v-41.045h34.905v26.684c0,2.643,2.144,4.787,4.788,4.787
		c2.643,0,4.787-2.145,4.787-4.787v-26.684h34.904v26.684c0,2.643,2.145,4.787,4.787,4.787c2.645,0,4.787-2.145,4.787-4.787v-26.684
		h20.545c2.643,0,4.787-2.143,4.787-4.787c0-2.644-2.145-4.787-4.787-4.787h-20.545v-41.045h20.545c2.643,0,4.787-2.143,4.787-4.787
		c0-2.644-2.145-4.787-4.787-4.787h-20.545v-41.045h20.545c2.643,0,4.787-2.143,4.787-4.787c0-2.644-2.145-4.787-4.787-4.787
		h-20.545v-13.917c0-2.644-2.143-4.787-4.787-4.787c-2.643,0-4.787,2.143-4.787,4.787v13.917h-34.904V97.524h34.904v7.979
		c0,2.644,2.145,4.787,4.787,4.787c2.645,0,4.787-2.143,4.787-4.787v-7.979h20.545c2.643,0,4.787-2.144,4.787-4.788
		c0-2.644-2.145-4.787-4.787-4.787h-20.545V54.375c0-2.644-2.143-4.788-4.787-4.788c-2.643,0-4.787,2.144-4.787,4.788V87.95h-34.904
		V77.447c0-2.644-2.145-4.787-4.787-4.787c-2.645,0-4.788,2.143-4.788,4.787V87.95h-34.905V63.617l11.955-7.742l8.229,12.705
		c0.801,1.237,2.127,2.036,3.596,2.167c0.141,0.013,0.281,0.019,0.422,0.019c1.32,0,2.589-0.546,3.498-1.519L214.43,35.06
		l52.436,10.068c6.389,1.227,11.786,7.76,11.786,14.266V279.256z"/>
	<path d="M172.24,264.797c-2.816,0-5.107,2.291-5.107,5.107c0,2.814,2.291,5.105,5.107,5.105c2.814,0,5.105-2.291,5.105-5.105
		C177.346,267.088,175.055,264.797,172.24,264.797z"/>
	<path d="M172.24,214.178c-2.816,0-5.107,2.291-5.107,5.106s2.291,5.106,5.107,5.106c2.814,0,5.105-2.291,5.105-5.106
		S175.055,214.178,172.24,214.178z"/>
	<path d="M172.24,173.771c2.814,0,5.105-2.291,5.105-5.106s-2.291-5.106-5.105-5.106c-2.816,0-5.107,2.291-5.107,5.106
		S169.424,173.771,172.24,173.771z"/>
	<path d="M172.24,112.94c-2.816,0-5.107,2.291-5.107,5.106c0,2.815,2.291,5.106,5.107,5.106c2.814,0,5.105-2.291,5.105-5.106
		C177.346,115.23,175.055,112.94,172.24,112.94z"/>
	<path d="M130.851,148.143c2.644,0,4.787-2.143,4.787-4.787c0-2.644-2.143-4.787-4.787-4.787h-20.543V97.524h20.543
		c2.644,0,4.787-2.144,4.787-4.788c0-2.644-2.143-4.787-4.787-4.787h-20.543V77.447c0-2.644-2.144-4.787-4.788-4.787
		c-2.644,0-4.787,2.143-4.787,4.787V87.95H65.775l0.053-33.567c0.004-2.644-2.136-4.79-4.78-4.795c-2.647,0-4.79,2.139-4.794,4.78
		L56.2,87.949H35.71c-2.644,0-4.788,2.144-4.788,4.787c0,2.644,2.144,4.787,4.788,4.787h20.475l-0.065,41.045H35.71
		c-2.644,0-4.788,2.143-4.788,4.787c0,2.644,2.144,4.787,4.788,4.787h20.395l-0.065,41.045H35.71c-2.644,0-4.788,2.143-4.788,4.787
		c0,2.644,2.144,4.787,4.788,4.787h20.314l-0.014,9.004c-0.004,2.645,2.136,4.791,4.779,4.795c2.648,0,4.791-2.139,4.795-4.779
		l0.014-9.02h35.134v41.045H65.649l-0.064-12.907c-0.013-2.644-2.136-4.771-4.811-4.764c-2.644,0.014-4.776,2.167-4.764,4.812
		l0.063,12.859H35.71c-2.644,0-4.788,2.144-4.788,4.787c0,2.645,2.144,4.787,4.788,4.787h20.411l0.132,26.707
		c0.013,2.635,2.154,4.764,4.787,4.764c2.668-0.014,4.8-2.168,4.788-4.812l-0.132-26.659h35.037v26.684
		c0,2.643,2.144,4.787,4.788,4.787c2.644,0,4.787-2.145,4.787-4.787v-26.684h20.543c2.644,0,4.787-2.143,4.787-4.787
		c0-2.644-2.143-4.787-4.787-4.787h-20.543v-41.045h20.543c2.644,0,4.787-2.143,4.787-4.787c0-2.644-2.143-4.787-4.787-4.787
		h-20.543v-41.045H130.851z M65.759,97.524h34.974v41.044H65.694L65.759,97.524z M100.733,189.188H65.614l0.065-41.045h35.054
		V189.188z"/>
</g>
</svg>
