<?xml version="1.0" encoding="utf-8"?>
<!-- Generator: Adobe Illustrator 23.0.1, SVG Export Plug-In . SVG Version: 6.00 Build 0)  -->
<svg version="1.1" id="图层_1" xmlns="http://www.w3.org/2000/svg" xmlns:xlink="http://www.w3.org/1999/xlink" x="0px" y="0px"
	 viewBox="0 0 300 300" style="enable-background:new 0 0 300 300;" xml:space="preserve">
<style type="text/css">
	.st0{fill:#FFFFFF;stroke:#000000;stroke-width:10;stroke-linecap:round;stroke-linejoin:round;stroke-miterlimit:10;}
</style>
<path d="M285.5,95.4c-28-39.5-65-53.1-79.6-57.1c-5.1-1.4-10.4,1.8-11.7,6.8c-5.3,20.3-23.7,34.4-44.7,34.4
	c-21,0-39.4-14.2-44.7-34.4c-1.3-5-6.6-8.2-11.7-6.8c-8.2,2.3-24.5,7.9-42.4,20.2c-2,1.4-2.5,4.1-1.1,6.1c1.4,2,4.1,2.5,6.1,1.1
	c16.7-11.6,32.1-16.8,39.7-19c0.4-0.1,0.8,0.2,0.9,0.6c6.3,24.1,28.2,41,53.2,41c25,0,46.8-16.8,53.2-41c0.1-0.4,0.5-0.7,0.9-0.6
	c13.4,3.7,46.8,16,72.8,51.1l-34.2,42.3c0,0-12.9-6.5-12.9-6.5c-3.4-1.7-7.3,1.6-6.2,5.2c0.2,0.5,15.2,50.2,15,118.8
	c0,2.4,1.9,4.4,4.4,4.4c2.4,0,4.4-2,4.4-4.4c0.2-52.3-8.4-93.8-12.8-111.8c0,0,21.5,10.9,21.6,10.9c7,3.5,15.6,2.1,20.5-4.2
	l18.2-22.5c0,0,0,0,0-0.1c4-5.1,4.6-12,1.5-17.7C292.8,106.4,289.3,100.8,285.5,95.4z M287.5,124.5L269.3,147c0,0,0,0,0,0
	c-2.2,2.9-6.3,3.7-9.5,1.9c0,0-0.1-0.1-0.1-0.1l-9.4-4.7l31.4-38.9c2.3,3.6,4.5,7.3,6.6,11.1C289.6,119,289.3,122.2,287.5,124.5z"/>
<path d="M62.3,232c2.8-55,14.1-92.5,14.3-93.1c1.1-3.6-2.7-6.9-6.1-5.2l-12.9,6.5L23.5,98c5.8-7.8,12.4-15,19.6-21.5
	c1.8-1.6,2-4.4,0.4-6.2c-1.6-1.8-4.4-2-6.2-0.4c-8.5,7.6-16.2,16.2-22.9,25.6c-3.8,5.3-7.2,10.9-10.4,16.7C1,118,1.6,125,5.6,130
	c0,0,0,0,0,0.1c0,0,18.1,22.4,18.1,22.4c4.9,6.1,13.6,7.9,20.5,4.2l21.5-10.8c-2.1,8.5-5.2,22.5-7.8,40.7c-1.7,12.1-3.4,27-4.3,44
	c0.8-0.2,1.6-0.2,2.5-0.2C58.3,230.3,60.5,230.9,62.3,232z M40.2,148.9c-0.1,0-0.1,0.1-0.1,0.1c-3.2,1.7-7.2,0.9-9.5-1.9
	c0,0,0,0,0,0l-18.1-22.4c-1.8-2.3-2.1-5.5-0.7-8.1c2-3.8,4.2-7.5,6.5-11l31.3,38.7L40.2,148.9z"/>
<path d="M100.1,39.2c-1.9-0.9-4.1-1.1-6.3-0.5c-8.1,2.2-24.5,7.8-42.2,20.1c-2,1.4-2.5,4.1-1.1,6.1c1.4,2,4.1,2.5,6.1,1.1
	c15.6-10.8,29.9-16.1,38-18.4l1.5-0.5C95.6,43,97.8,39,100.1,39.2z"/>
<path d="M61.7,258.4c0-9.5,0.2-18.6,0.6-27.4c-1.8-1.3-4-2.1-6.2-2.1c-0.8,0-1.7,0.1-2.5,0.3c-0.4,9.6-0.6,19.7-0.7,30.3
	c1,0.3,2,0.5,3.1,0.5C58.1,260,60,259.4,61.7,258.4z"/>
<path class="st0" d="M59,256.1c0,0,102.5,34.4,183.2,1.6"/>
</svg>
