<?xml version="1.0" encoding="utf-8"?>
<!-- Generator: Adobe Illustrator 16.0.4, SVG Export Plug-In . SVG Version: 6.00 Build 0)  -->
<!DOCTYPE svg PUBLIC "-//W3C//DTD SVG 1.1//EN" "http://www.w3.org/Graphics/SVG/1.1/DTD/svg11.dtd">
<svg version="1.1" id="图层_1" xmlns="http://www.w3.org/2000/svg" xmlns:xlink="http://www.w3.org/1999/xlink" x="0px" y="0px"
	 width="300px" height="300px" viewBox="0 0 300 300" enable-background="new 0 0 300 300" xml:space="preserve">
<path d="M285.97,57.445C258.016,17.986,220.99,4.358,206.371,0.331c-5.054-1.393-10.368,1.754-11.692,6.792
	c-5.321,20.27-23.693,34.425-44.681,34.425c-20.985,0-39.357-14.156-44.681-34.425c-1.323-5.041-6.645-8.181-11.689-6.792
	c-8.175,2.252-24.544,7.87-42.354,20.197c-1.986,1.378-2.484,4.106-1.106,6.097c1.375,1.99,4.104,2.484,6.094,1.106
	C73.005,16.142,88.316,10.882,95.956,8.778c0.406-0.111,0.787,0.183,0.888,0.569c6.332,24.12,28.19,40.964,53.158,40.964
	c24.964,0,46.823-16.844,53.155-40.964c0.101-0.386,0.482-0.68,0.887-0.569c13.38,3.686,46.771,15.958,72.836,51.057l-34.192,42.312
	c0,0-12.876-6.489-12.933-6.519c-3.413-1.719-7.281,1.576-6.158,5.208c0.152,0.492,15.24,50.152,14.998,118.784
	c-0.01,2.417,1.945,4.386,4.381,4.396c2.415,0,4.373-1.952,4.381-4.367c0.186-52.269-8.388-93.844-12.814-111.793
	c0,0,21.539,10.856,21.558,10.866c7.023,3.539,15.56,2.097,20.52-4.199l18.196-22.517c0.015-0.018,0.03-0.036,0.045-0.055
	c3.973-5.076,4.562-12.029,1.506-17.713C293.232,68.411,289.734,62.761,285.97,57.445z M287.978,86.527l-18.192,22.509
	c-0.015,0.019-0.028,0.034-0.041,0.049c-2.236,2.867-6.316,3.676-9.483,1.922c-0.05-0.024-0.098-0.054-0.148-0.078l-9.421-4.746
	l31.399-38.854c2.328,3.573,4.521,7.276,6.558,11.061C290.054,80.999,289.788,84.192,287.978,86.527z"/>
<path d="M42.808,38.311c1.807-1.608,1.969-4.376,0.36-6.186c-1.606-1.808-4.376-1.97-6.183-0.36
	c-8.543,7.598-16.267,16.238-22.955,25.683c-3.765,5.313-7.263,10.963-10.396,16.791C0.577,79.92,1.168,86.874,5.14,91.95
	c0.014,0.019,0.028,0.037,0.044,0.055c0,0,18.172,22.487,18.196,22.517c4.92,6.085,13.609,7.97,20.52,4.199l21.528-10.851
	c-2.131,8.58-5.209,22.581-7.829,40.787c-4.087,28.416-7.733,72.788-1.887,122.797c0.606,5.201,1.307,10.392,2.081,15.429
	c1.086,7.064,7.06,12.19,14.204,12.19h35.162c6.788,0,12.557-4.621,14.028-11.239c1.182-5.339,2.632-10.717,4.187-15.553
	c3.917-12.173,12.327-32.583,24.627-32.583s20.706,20.41,24.624,32.585c1.557,4.834,3.003,10.212,4.187,15.553
	c1.473,6.616,7.24,11.237,14.025,11.237h35.165c7.144,0,13.117-5.126,14.204-12.19c2.521-16.404,4.075-32.96,4.755-49.545
	c0.1-2.419-1.78-4.459-4.199-4.557c-2.409-0.099-4.456,1.78-4.557,4.199c-0.407,9.938-1.143,19.87-2.188,29.581h-54.062
	c-8.145-23.644-18.887-35.625-31.957-35.625c-13.069,0-23.812,11.981-31.955,35.625H63.979
	c-9.9-91.92,12.171-164.906,12.422-165.723c1.123-3.634-2.748-6.928-6.156-5.209l-12.933,6.519L23.121,59.835
	C28.964,51.975,35.574,44.746,42.808,38.311z M234.983,275.322c-0.442,3.451-0.924,6.875-1.439,10.231
	c-0.415,2.711-2.8,4.757-5.542,4.757h-35.165c-2.647,0-4.898-1.801-5.471-4.378c-0.803-3.625-1.698-7.174-2.67-10.61H234.983z
	 M115.302,275.322c-0.974,3.437-1.866,6.985-2.669,10.608c-0.573,2.579-2.824,4.38-5.474,4.38H71.997
	c-2.742,0-5.126-2.046-5.544-4.757c-0.516-3.356-0.998-6.78-1.44-10.231H115.302z M49.306,106.183l-9.418,4.746
	c-0.051,0.024-0.101,0.051-0.149,0.078c-3.19,1.752-7.24,0.942-9.485-1.922c-0.012-0.015-0.025-0.03-0.039-0.049L12.022,86.528
	c-1.812-2.336-2.077-5.529-0.671-8.14c2.033-3.783,4.231-7.486,6.558-11.059L49.306,106.183z"/>
</svg>
