<?xml version="1.0" encoding="utf-8"?>
<!-- Generator: Adobe Illustrator 16.0.4, SVG Export Plug-In . SVG Version: 6.00 Build 0)  -->
<!DOCTYPE svg PUBLIC "-//W3C//DTD SVG 1.1//EN" "http://www.w3.org/Graphics/SVG/1.1/DTD/svg11.dtd">
<svg version="1.1" id="图层_1" xmlns="http://www.w3.org/2000/svg" xmlns:xlink="http://www.w3.org/1999/xlink" x="0px" y="0px"
	 width="300px" height="300px" viewBox="0 0 300 300" enable-background="new 0 0 300 300" xml:space="preserve">
<g>
	<path fill="none" d="M203.271,39.397c-0.069-0.196-0.104-0.392-0.097-0.586c-0.04,0.069-0.095,0.167-0.185,0.316
		C203.082,39.217,203.177,39.307,203.271,39.397z"/>
	<path d="M110.173,297.006c2.827-3.069,5.861-5.994,8.815-8.945c3.01-3.009,3.012-3.033,5.969-0.11
		c0.679,0.67,1.364,1.315,2.152,1.86c2.542,1.76,5.01,1.578,7.103-0.657c4.054-4.33,8.316-8.458,12.562-12.587
		c24.362-23.694,48.183-47.933,72.262-71.911c3.826-3.81,6.995-8.066,8.518-13.382c3.092-10.795,0.758-20.433-6.844-28.464
		c-8.861-9.36-18.178-18.289-27.291-27.411c-2.371-2.374-2.373-2.544-0.028-4.891c15.123-15.131,30.18-30.329,45.433-45.327
		c3.515-3.456,2.896-7.065,0.182-9.713c-3.69-3.598-3.478-3.37,0.115-6.963c2.693-2.695,5.406-5.369,8.071-8.091
		c1.077-1.101,2.109-2.268,2.394-3.863c0.416-2.325-0.627-4.617-2.527-5.636c-2.185-1.172-4.52-0.893-6.47,0.973
		c-3.282,3.14-6.44,6.407-9.659,9.612c-0.52,0.517-1.044,1.028-1.568,1.539c-0.892,0.867-1.771,0.93-2.685,0.045
		c-2.157-2.09-4.287-4.208-6.368-6.375c-1.184-1.233-0.573-2.228,0.4-3.206c3.618-3.634,7.312-7.195,10.855-10.902
		c2.957-3.095,1.627-7.785-2.432-8.867c-2.083-0.555-3.716,0.315-5.141,1.733c-3.377,3.357-6.731,6.739-10.108,10.096
		c-2.23,2.217-2.53,2.214-4.775-0.008c-1.666-1.649-3.285-3.347-4.982-4.963c-0.436-0.416-0.717-0.809-0.854-1.195
		c-0.094-0.09-0.188-0.18-0.281-0.27c0.09-0.149,0.145-0.248,0.185-0.316c0.016-0.561,0.339-1.123,0.96-1.733
		c3.188-3.132,6.332-6.309,9.489-9.473c0.672-0.673,1.348-1.345,1.879-2.144c1.567-2.355,1.398-5-0.438-6.836
		c-1.768-1.768-4.641-1.996-6.881-0.547c-0.745,0.481-1.35,1.123-1.972,1.743c-3.217,3.207-6.441,6.406-9.63,9.641
		c-1.225,1.243-2.286,1.338-3.534,0.047c-1.834-1.895-3.748-3.711-5.579-5.609c-1.521-1.576-1.518-1.99,0.087-3.625
		c3.128-3.189,6.311-6.329,9.471-9.488c0.884-0.883,1.733-1.791,2.291-2.927c1.308-2.669,0.618-4.984-1.802-6.679
		C196.974,0.8,196.023,1,196.108,0c-1.026,0-2.053,0-3.077,0c-0.237,1-1.782,1.519-2.652,2.429
		c-3.492,3.653-7.201,6.974-10.646,10.671c-1.265,1.357-2.106,1.11-3.218-0.058c-0.907-0.952-1.802-1.965-2.86-2.76
		c-2.715-2.037-5.446-1.914-7.945,0.384c-0.54,0.495-1.045,1.02-1.563,1.538c-19.169,19.169-38.252,38.424-57.544,57.47
		c-10.415,10.281-20.899,20.49-31.213,30.873c-2.741,2.759-5.307,5.725-6.51,9.532c-2.389,7.556-1.101,14.287,4.634,20.004
		c11.157,11.122,22.285,22.27,33.421,33.414c2.526,2.527,2.527,2.756,0.03,5.254c-15.022,15.027-30.05,30.05-45.073,45.076
		c-4.269,4.271-4.282,6.646-0.083,10.949c2.882,2.954,2.881,2.953-0.025,5.867c-3.26,3.269-6.592,6.467-9.768,9.816
		c-2.791,2.942-1.709,7.397,2.043,8.782c2.2,0.812,4.102,0.022,5.654-1.444c3.247-3.066,6.495-6.14,9.409-9.538
		c0.285-0.333,0.545-0.689,0.847-1.011c1.724-1.833,2.367-1.877,4.146-0.15c1.839,1.788,3.612,3.644,5.452,5.429
		c1.212,1.176,1.159,2.179-0.024,3.347c-3.18,3.142-6.33,6.313-9.487,9.477c-0.777,0.778-1.557,1.552-2.135,2.501
		c-1.485,2.437-1.071,5.198,1.044,6.915c2.003,1.627,5.169,1.595,7.05-0.215c3.327-3.199,6.544-6.511,9.812-9.771
		c2.995-2.986,2.995-2.989,6.021,0.035c1.45,1.451,2.868,2.938,4.359,4.346c1.314,1.239,1.211,2.284-0.038,3.512
		c-3.24,3.185-6.437,6.413-9.644,9.629c-0.569,0.571-1.165,1.118-1.656,1.761c-1.771,2.317-1.566,5.296,0.486,7.149
		c2.051,1.854,5.063,1.839,7.156-0.173c3.064-2.944,6.023-5.996,9.032-8.997c0.622-0.621,1.234-1.253,1.869-1.861
		c1.747-1.674,2.054-1.688,3.77-0.018c1.733,1.685,3.44,3.399,5.13,5.127c1.819,1.861,1.835,2.321,0.035,4.149
		c-3.186,3.238-6.417,6.432-9.629,9.645c-0.833,0.835-1.621,1.698-2.041,2.828c-1.013,2.726-0.193,5.166,2.273,6.733
		c0.499,0.317,1.37,0.286,1.259,1.355c0.879,0,1.759,0,2.638,0C107.406,297.862,109.149,298.117,110.173,297.006z M154.597,37.433
		c4.742-4.583,9.393-9.261,13.997-13.982c1.002-1.026,1.51-0.998,2.512,0.009c18.505,18.595,37.05,37.15,55.594,55.708
		c0.356,0.357,0.788,0.641,1.058,0.858c-0.146,0.939-0.713,1.229-1.109,1.627c-4.6,4.624-9.267,9.181-13.792,13.877
		c-1.181,1.226-1.737,1.102-2.865-0.034c-13.731-13.834-27.521-27.613-41.295-41.405c-4.66-4.666-9.29-9.364-14.006-13.975
		C153.661,39.111,153.413,38.577,154.597,37.433z M78.925,116.893c-0.176-2.692,1.022-4.755,2.877-6.597
		c7.28-7.223,14.524-14.485,21.78-21.733c13.32-13.306,26.651-26.6,39.932-39.944c1.028-1.034,1.519-1.199,2.652-0.061
		c18.455,18.53,36.966,37.005,55.468,55.489c0.726,0.725,1.494,1.203,0.296,2.372c-6.18,6.033-12.257,12.17-18.485,18.386
		c-5.549-5.564-11.079-11.11-16.61-16.654c-1.604-1.607-3.201-3.22-4.818-4.813c-6.944-6.833-15.396-8.208-24.134-3.854
		c-15.739,7.841-31.494,15.65-47.166,23.622C84.684,126.174,79.27,122.148,78.925,116.893z M94.208,134.503
		c14.608-7.304,29.346-14.673,44.084-22.044c1.957-0.979,3.897-1.991,5.862-2.955c3.422-1.681,7.162-0.86,9.452,2.046
		c2.311,2.934,2.336,6.823,0.059,9.729c-0.18,0.231-0.363,0.461-0.569,0.667c-11.935,11.977-23.871,23.951-35.711,35.832
		C109.577,149.938,101.897,142.227,94.208,134.503z M98.539,193.018c20.729-20.613,41.41-41.274,62.106-61.92
		c2.088-2.083,3.81-4.416,5.065-7.442c9.192,9.182,18.154,18.13,27.112,27.08c6.376,6.37,12.755,12.737,19.12,19.117
		c7.675,7.691,7.709,18.265,0.021,25.968c-18.426,18.462-36.889,36.888-55.309,55.358c-0.932,0.936-1.425,1.159-2.497,0.08
		c-18.497-18.599-37.034-37.156-55.598-55.688C97.563,194.575,97.482,194.067,98.539,193.018z M94.837,241.936
		c-7.042-7.05-14.049-14.133-21.141-21.131c-1.139-1.124-1.258-1.7-0.033-2.88c4.693-4.524,9.282-9.16,13.85-13.813
		c0.944-0.961,1.46-1.159,2.548-0.067c18.51,18.584,37.062,37.127,55.649,55.635c1.041,1.035,0.927,1.526-0.046,2.477
		c-4.767,4.661-9.456,9.401-14.176,14.11c-0.358,0.357-0.737,0.693-1.146,1.075c-0.459-0.419-0.907-0.796-1.319-1.209
		C117.625,264.735,106.229,253.338,94.837,241.936z"/>
	<path d="M120.768,286.883c1.114-1.181,1.71-1.047,2.662,0.072c0.992,1.166,2.108,2.252,3.29,3.228
		c2.374,1.961,5.669,1.743,7.759-0.369c4.377-4.426,8.753-8.851,13.159-13.248c24.163-24.117,48.382-48.181,72.485-72.357
		c12.572-12.611,12.403-30.414-0.194-43.038c-8.849-8.869-17.678-17.757-26.617-26.534c-1.431-1.404-1.271-2.034,0.05-3.346
		c15.548-15.431,31.028-30.927,46.526-46.406c2.865-2.86,2.9-6.116,0.085-9.062c-0.809-0.848-1.594-1.732-2.488-2.481
		c-1.069-0.897-1.146-1.515-0.048-2.564c3.55-3.389,6.973-6.91,10.445-10.379c1.098-1.097,2.081-2.262,2.342-3.869
		c0.417-2.574-0.661-4.851-2.904-6.116c-2.385-1.347-4.87-1.047-7.017,1.045c-3.829,3.732-7.606,7.52-11.351,11.338
		c-0.779,0.793-1.227,0.879-2.025,0.027c-1.951-2.085-3.934-4.154-6.049-6.068c-1.213-1.097-0.964-1.7,0.081-2.707
		c3.586-3.458,7.076-7.015,10.599-10.538c1.455-1.456,2.422-3.122,2.136-5.278c-0.306-2.302-1.562-3.959-3.692-4.797
		c-2.236-0.881-4.352-0.449-6.079,1.247c-3.868,3.798-7.705,7.629-11.518,11.482c-0.734,0.741-1.177,0.994-2.061,0.087
		c-2.308-2.368-4.736-4.616-7.072-6.853c0.137,0.386,0.418,0.78,0.854,1.195c1.697,1.616,3.316,3.313,4.982,4.963
		c2.245,2.223,2.545,2.226,4.775,0.008c3.377-3.357,6.731-6.739,10.108-10.096c1.425-1.417,3.058-2.288,5.141-1.733
		c4.059,1.083,5.389,5.772,2.432,8.867c-3.543,3.707-7.237,7.268-10.855,10.902c-0.974,0.978-1.584,1.973-0.4,3.206
		c2.081,2.167,4.211,4.285,6.368,6.375c0.914,0.885,1.793,0.822,2.685-0.045c0.524-0.51,1.049-1.022,1.568-1.539
		c3.219-3.205,6.377-6.472,9.659-9.612c1.95-1.866,4.285-2.146,6.47-0.973c1.9,1.019,2.943,3.312,2.527,5.636
		c-0.284,1.595-1.316,2.762-2.394,3.863c-2.665,2.722-5.378,5.396-8.071,8.091c-3.593,3.593-3.806,3.365-0.115,6.963
		c2.715,2.647,3.333,6.257-0.182,9.713c-15.253,14.999-30.31,30.196-45.433,45.327c-2.345,2.347-2.343,2.517,0.028,4.891
		c9.113,9.122,18.43,18.05,27.291,27.411c7.602,8.031,9.936,17.669,6.844,28.462c-1.522,5.316-4.691,9.573-8.518,13.383
		c-24.079,23.978-47.899,48.215-72.262,71.909c-4.246,4.129-8.508,8.255-12.562,12.584c-2.093,2.235-4.561,2.411-7.103,0.651
		c-0.788-0.545-1.473-1.204-2.152-1.873c-2.958-2.923-2.959-2.922-5.969,0.087c-2.954,2.952-5.988,5.829-8.815,8.898
		c-1.024,1.111-2.767,1.322-3.326,2.898c1.676-0.774,3.04-1.938,4.326-3.253C114.349,293.31,117.653,290.185,120.768,286.883z"/>
	<path d="M197.516,0.923c2.42,1.694,3.109,4.267,1.802,6.936c-0.558,1.137-1.407,2.044-2.291,2.927
		c-3.16,3.16-6.343,6.299-9.471,9.488c-1.604,1.636-1.608,2.049-0.087,3.625c1.831,1.898,3.745,3.714,5.579,5.609
		c1.248,1.291,2.31,1.196,3.534-0.047c3.188-3.235,6.413-6.434,9.63-9.641c0.622-0.62,1.227-1.262,1.972-1.743
		c2.24-1.449,5.113-1.221,6.881,0.547c1.836,1.836,2.005,4.48,0.438,6.836c-0.531,0.799-1.207,1.471-1.879,2.144
		c-3.157,3.164-6.301,6.341-9.489,9.473c-0.621,0.61-0.944,1.172-0.96,1.733c0.052-0.092,0.074-0.13,0.104-0.16
		c3.827-3.838,7.657-7.674,11.486-11.51c1.615-1.618,2.791-3.435,2.307-5.852c-0.449-2.253-1.777-3.892-3.98-4.56
		c-2.264-0.688-4.331-0.147-6.047,1.571c-3.729,3.732-7.497,7.422-11.186,11.193c-0.855,0.875-1.352,0.965-2.229,0.024
		c-1.997-2.143-4.069-4.222-6.21-6.22c-0.938-0.875-0.824-1.343,0.035-2.189c3.496-3.445,6.911-6.972,10.351-10.474
		c4.307-4.383,3.713-8.265-1.696-11.148C196.023,0.5,196.974,0.543,197.516,0.923z"/>
	<path d="M102.95,298.55c-2.467-1.567-3.286-3.913-2.273-6.639c0.419-1.13,1.208-1.993,2.041-2.828
		c3.212-3.213,6.443-6.406,9.629-9.645c1.8-1.828,1.784-2.288-0.035-4.149c-1.69-1.728-3.397-3.442-5.13-5.127
		c-1.716-1.671-2.023-1.656-3.77,0.018c-0.635,0.608-1.247,1.24-1.869,1.861c-3.009,3.001-5.968,6.053-9.032,8.997
		c-2.093,2.012-5.105,2.027-7.156,0.173c-2.052-1.854-2.257-4.832-0.486-7.149c0.491-0.643,1.086-1.189,1.656-1.761
		c3.207-3.216,6.404-6.444,9.644-9.629c1.249-1.228,1.352-2.272,0.038-3.512c-1.491-1.407-2.909-2.895-4.359-4.346
		c-3.026-3.024-3.026-3.021-6.021-0.035c-3.268,3.261-6.485,6.572-9.812,9.771c-1.881,1.81-5.046,1.842-7.05,0.215
		c-2.115-1.717-2.529-4.479-1.044-6.915c0.579-0.949,1.358-1.723,2.135-2.501c3.158-3.163,6.307-6.335,9.487-9.477
		c1.183-1.168,1.236-2.171,0.024-3.347c-1.839-1.785-3.612-3.641-5.452-5.429c-1.779-1.727-2.422-1.683-4.146,0.15
		c-0.302,0.321-0.562,0.678-0.847,1.011c-2.914,3.398-6.162,6.472-9.409,9.538c-1.553,1.467-3.455,2.257-5.654,1.444
		c-3.752-1.385-4.833-5.84-2.043-8.782c3.176-3.35,6.508-6.548,9.768-9.816c2.907-2.914,2.908-2.913,0.025-5.867
		c-4.2-4.303-4.187-6.678,0.083-10.949c15.023-15.026,30.051-30.049,45.073-45.076c2.497-2.498,2.496-2.727-0.03-5.254
		c-11.136-11.144-22.264-22.292-33.421-33.414c-5.735-5.717-7.023-12.449-4.634-20.005c1.204-3.807,3.769-6.773,6.51-9.533
		c10.314-10.382,20.798-20.593,31.213-30.874c19.292-19.047,38.375-38.306,57.544-57.475c0.519-0.518,1.023-1.051,1.563-1.546
		c2.499-2.298,5.23-2.437,7.945-0.4c1.059,0.795,1.953,1.774,2.86,2.728c1.111,1.168,1.953,1.351,3.218-0.006
		c3.444-3.699,7.153-7.146,10.646-10.8c0.87-0.91,2.415-1.166,2.652-2.685c-1.079,0.814-2.261,1.465-3.215,2.477
		c-2.663,2.825-5.413,5.569-8.131,8.342c-1.128,1.15-2.167,3.091-3.415,3.239c-1.505,0.179-2.451-1.994-3.654-3.126
		c-3.145-2.965-6.391-3.025-9.476-0.014c-2.987,2.917-5.932,5.878-8.889,8.827c-22.415,22.345-44.87,44.647-67.212,67.065
		c-5.887,5.905-12.18,11.429-17.468,17.917c-6.341,7.779-5.851,18.85,1.218,25.965c11.517,11.59,23.078,23.137,34.685,34.635
		c1.198,1.187,1.116,1.713-0.038,2.852c-10.997,10.866-21.928,21.798-32.867,32.722c-4.874,4.866-9.784,9.697-14.557,14.66
		c-2.628,2.733-2.49,5.832,0.081,8.599c0.797,0.858,1.567,1.774,2.492,2.476c1.474,1.118,1.102,1.895-0.066,3.017
		c-3.593,3.45-7.06,7.032-10.607,10.53c-1.446,1.427-2.221,3.089-1.978,5.117c0.285,2.374,1.536,4.096,3.807,4.925
		c2.366,0.864,4.479,0.283,6.237-1.469c3.786-3.777,7.56-7.568,11.286-11.406c0.788-0.811,1.25-0.867,2.05-0.013
		c2.003,2.139,4.038,4.259,6.206,6.226c1.111,1.007,0.762,1.503-0.106,2.348c-3.414,3.32-6.765,6.705-10.131,10.074
		c-3.407,3.408-3.792,6.704-1.111,9.365c2.692,2.672,6.081,2.321,9.368-0.976c3.414-3.425,6.849-6.831,10.215-10.3
		c0.818-0.843,1.315-1.059,2.222-0.075c1.986,2.152,4.058,4.232,6.193,6.237c0.933,0.876,0.823,1.343-0.046,2.185
		c-3.628,3.52-7.184,7.116-10.75,10.697c-2.822,2.835-3.087,6.272-0.702,8.739c2.513,2.598,5.979,2.445,8.89-0.436
		c3.646-3.606,7.289-7.218,10.875-10.884c0.803-0.819,1.263-0.853,2.06-0.002c2.003,2.137,4.065,4.225,6.193,6.238
		c0.907,0.859,0.903,1.362-0.001,2.238c-3.471,3.364-6.863,6.813-10.281,10.234c-4.303,4.309-3.634,8.421,1.801,11.076
		C104.319,298.865,103.449,298.868,102.95,298.55z"/>
	<path d="M170.081,216.729c2.522,0.794,4.594-0.042,6.379-1.815c6.129-6.095,12.25-12.196,18.373-18.297
		c3.111-3.103,6.279-6.153,9.313-9.33c2.597-2.717,2.543-6.477,0.053-8.841c-2.463-2.339-5.965-2.227-8.64,0.426
		c-9.207,9.127-18.37,18.299-27.557,27.446c-1.238,1.233-2.037,2.658-2.193,4.557c0.031,0.302,0.03,0.749,0.131,1.171
		C166.483,214.338,167.761,215.998,170.081,216.729z"/>
	<path d="M155.286,233.468c3.246-0.018,5.78-2.575,5.792-5.85c0.012-3.222-2.572-5.92-5.729-5.98
		c-3.212-0.062-5.923,2.708-5.896,6.022C149.479,230.909,152.063,233.483,155.286,233.468z"/>
</g>
</svg>
