<?xml version="1.0" encoding="utf-8"?>
<!-- Generator: Adobe Illustrator 16.0.4, SVG Export Plug-In . SVG Version: 6.00 Build 0)  -->
<!DOCTYPE svg PUBLIC "-//W3C//DTD SVG 1.1//EN" "http://www.w3.org/Graphics/SVG/1.1/DTD/svg11.dtd">
<svg version="1.1" id="图层_1" xmlns="http://www.w3.org/2000/svg" xmlns:xlink="http://www.w3.org/1999/xlink" x="0px" y="0px"
	 width="300px" height="300px" viewBox="0 0 300 300" enable-background="new 0 0 300 300" xml:space="preserve">
<g>
	<g>
		<path d="M284.648,124.111L272.37,50.447c-1.986-11.92-10.879-21.379-22.654-24.097l-46.994-10.845l-8.986-13.479
			c-0.751-1.125-1.949-1.873-3.291-2.051c-0.206-0.027-0.412-0.036-0.617-0.035v-0.006H109.66v0.004
			c-0.206,0-0.412,0.009-0.618,0.037c-1.341,0.178-2.54,0.926-3.29,2.051l-8.986,13.479L49.771,26.352
			c-11.775,2.718-20.668,12.176-22.655,24.098l-12.277,73.662c-0.363,2.178,0.839,4.314,2.889,5.134l47.152,18.86v147.133
			c0,2.595,2.103,4.697,4.697,4.697h160.335c2.594,0,4.697-2.102,4.697-4.697V148.105l47.152-18.86
			C283.809,128.425,285.011,126.288,284.648,124.111z M194.257,19.746l-20.461,32.738c-0.021,0.033-0.074,0.119-0.213,0.144
			c-0.139,0.021-0.218-0.04-0.248-0.064l-16.273-13.019l31.828-27.85L194.257,19.746z M177.324,9.33l-27.581,24.134L122.161,9.33
			H177.324z M155.067,49.98v44.841c0,0.172-0.141,0.312-0.313,0.312h-10.021c-0.173,0-0.313-0.141-0.313-0.312V49.98l5.323-4.26
			L155.067,49.98z M110.597,11.694l31.828,27.85l-16.273,13.019c-0.03,0.024-0.109,0.086-0.248,0.064
			c-0.138-0.023-0.192-0.109-0.213-0.143L105.23,19.746L110.597,11.694z M64.879,137.987l-40.152-16.062l1.551-9.303l38.601,15.441
			V137.987z M225.213,290.541H74.273v-10.646h150.938L225.213,290.541L225.213,290.541z M229.91,85.113
			c-2.595,0-4.698,2.103-4.698,4.697V270.5H74.273V89.811c0-2.595-2.103-4.697-4.698-4.697c-2.594,0-4.697,2.102-4.697,4.697v28.135
			l-37.02-14.809l8.523-51.145c1.359-8.155,7.444-14.627,15.501-16.487L97.43,24.994l20.293,32.47
			c1.466,2.347,3.873,3.959,6.602,4.424c0.542,0.093,1.085,0.138,1.628,0.138c2.189,0,4.334-0.741,6.066-2.127l3.004-2.402v37.325
			c0,5.353,4.354,9.708,9.708,9.708h10.021c5.353,0,9.707-4.355,9.707-9.708V57.496l3.004,2.403
			c1.733,1.386,3.879,2.127,6.067,2.127c0.542,0,1.085-0.046,1.628-0.138c2.728-0.465,5.135-2.076,6.602-4.425l20.293-32.47
			l45.548,10.511c8.057,1.86,14.143,8.331,15.501,16.487l8.524,51.145l-37.021,14.809V89.811
			C234.607,87.216,232.505,85.113,229.91,85.113z M234.607,137.987v-9.924l38.602-15.44l1.551,9.304L234.607,137.987z"/>
	</g>
</g>
</svg>
