<?xml version="1.0" encoding="utf-8"?>
<!-- Generator: Adobe Illustrator 16.0.4, SVG Export Plug-In . SVG Version: 6.00 Build 0)  -->
<!DOCTYPE svg PUBLIC "-//W3C//DTD SVG 1.1//EN" "http://www.w3.org/Graphics/SVG/1.1/DTD/svg11.dtd">
<svg version="1.1" id="图层_1" xmlns="http://www.w3.org/2000/svg" xmlns:xlink="http://www.w3.org/1999/xlink" x="0px" y="0px"
	 width="300px" height="300px" viewBox="0 0 300 300" enable-background="new 0 0 300 300" xml:space="preserve">
<g>
	<path d="M267.783,35.727l-51.146-9.821V4.788c0-2.644-2.143-4.787-4.787-4.787H86.377c-2.645,0-4.787,2.144-4.787,4.787v21.118
		l-51.146,9.821C19.66,37.797,10.887,48.414,10.887,59.394v219.862c0,11.438,9.307,20.744,20.744,20.744h234.963
		c11.439,0,20.746-9.307,20.746-20.744V59.394C287.34,48.415,278.566,37.797,267.783,35.727z M277.764,279.256
		c0,6.158-5.01,11.17-11.17,11.17H162.946H153.9h-9.574h-6.752H31.631c-6.158,0-11.17-5.012-11.17-11.17V59.394
		c0-6.505,5.398-13.038,11.787-14.266l52.436-10.068l31.943,34.188c1.006,1.077,2.453,1.629,3.92,1.5
		c1.469-0.13,2.795-0.929,3.596-2.167l8.229-12.705l5.203-8.037l4.812-7.431c0.717-1.108,0.945-2.463,0.631-3.745
		c-0.316-1.282-1.146-2.377-2.295-3.026l-28.877-16.302c-2.303-1.3-5.223-0.487-6.523,1.815c-1.299,2.303-0.486,5.223,1.816,6.522
		l24.447,13.801l-4.621,7.136c-0.01,0.015-0.021,0.027-0.031,0.042s-0.018,0.03-0.025,0.045l-7.471,11.535l-28.273-30.26V9.575
		h115.898v18.398l-28.275,30.26l-7.494-11.572c-0.008-0.013-4.652-7.186-4.652-7.186l24.447-13.801
		c2.303-1.3,3.115-4.22,1.816-6.522c-1.301-2.303-4.221-3.115-6.523-1.815l-28.877,16.302c-1.148,0.649-1.98,1.744-2.295,3.025
		c-0.316,1.282-0.088,2.637,0.631,3.746l4.812,7.431l5.203,8.036l8.229,12.705c0.801,1.237,2.127,2.036,3.596,2.167
		c0.141,0.013,0.281,0.019,0.422,0.019c1.32,0,2.588-0.546,3.498-1.519l31.943-34.188l52.436,10.068
		c6.389,1.227,11.785,7.76,11.785,14.266V279.256z"/>
	<path d="M190.049,74.256l0.607-0.563C190.438,73.864,190.234,74.05,190.049,74.256z"/>
</g>
</svg>
