<?xml version="1.0" encoding="utf-8"?>
<!-- Generator: Adobe Illustrator 16.0.4, SVG Export Plug-In . SVG Version: 6.00 Build 0)  -->
<!DOCTYPE svg PUBLIC "-//W3C//DTD SVG 1.1//EN" "http://www.w3.org/Graphics/SVG/1.1/DTD/svg11.dtd">
<svg version="1.1" id="图层_1" xmlns="http://www.w3.org/2000/svg" xmlns:xlink="http://www.w3.org/1999/xlink" x="0px" y="0px"
	 width="300px" height="300px" viewBox="0 0 300 300" enable-background="new 0 0 300 300" xml:space="preserve">
<g>
	<g>
		<path d="M275.101,57.036c-0.51-21.446-14.629-40.096-35.135-46.403l-28.328-8.717c-4.27-1.314-8.701-1.98-13.168-1.98h-98.176
			c-4.468,0-8.899,0.666-13.169,1.98l-28.329,8.717C38.292,16.941,24.172,35.59,23.662,57.036l-4.157,174.575
			c-0.087,3.63,1.821,6.927,4.928,8.676v16.781c0,3.701,2.056,7.027,5.366,8.684l34.717,17.357v7.117
			c0,5.354,4.354,9.709,9.708,9.709h150.313c5.354,0,9.707-4.355,9.707-9.709v-7.117l34.719-17.358
			c3.309-1.655,5.365-4.982,5.365-8.683v-16.781c3.107-1.749,5.016-5.046,4.928-8.676L275.101,57.036z M179.394,9.33
			c-2.266,14.526-14.859,25.679-30.012,25.679c-15.152,0-27.747-11.152-30.011-25.679H179.394z M100.293,9.33h9.604
			c2.333,19.722,19.144,35.072,39.483,35.072c20.339,0,37.151-15.351,39.483-35.072h9.604c0.371,0,0.742,0.01,1.111,0.021
			c-2.375,25.831-23.938,45.7-50.198,45.7c-13.135,0-25.571-5.023-35.017-14.145c-8.744-8.442-14.065-19.561-15.176-31.555
			C99.557,9.34,99.925,9.33,100.293,9.33z M54.998,267.847l-20.996-10.498c-0.107-0.054-0.173-0.161-0.173-0.28v-12.685
			l21.224,9.097l-0.29,11.318C54.735,265.834,54.817,266.854,54.998,267.847z M224.851,290.228c0,0.173-0.139,0.313-0.312,0.313
			H74.225c-0.173,0-0.313-0.142-0.313-0.313v-10.334h150.938V290.228z M233.101,268.893c-1.01,1.036-2.363,1.607-3.812,1.607H69.475
			v-0.001c-1.448,0-2.802-0.571-3.812-1.607c-1.011-1.036-1.547-2.405-1.509-3.853l0.523-20.409l11.474,4.833
			c1.166,0.492,2.48,0.492,3.646,0l21.966-9.252l21.967,9.252c1.166,0.492,2.481,0.492,3.647,0l21.96-9.252l21.964,9.252
			c1.166,0.492,2.48,0.492,3.645,0.001l21.986-9.254l22.002,9.254c0.582,0.245,1.201,0.368,1.82,0.368s1.238-0.123,1.822-0.368
			l11.508-4.841l0.525,20.418C234.647,266.488,234.112,267.855,233.101,268.893z M76.15,169.297c1.166,0.49,2.481,0.49,3.647,0
			l21.966-9.254l21.967,9.254c0.583,0.245,1.203,0.368,1.824,0.368s1.24-0.123,1.824-0.368l21.96-9.253l21.963,9.253
			c1.166,0.491,2.48,0.491,3.646,0l21.984-9.254l22.002,9.254c1.164,0.49,2.479,0.49,3.643,0l9.477-3.985l1.266,49.4l-12.564,5.284
			l-22.002-9.254c-1.164-0.49-2.479-0.49-3.643,0l-21.984,9.254l-21.964-9.253c-1.166-0.491-2.481-0.491-3.648,0l-21.96,9.253
			l-21.966-9.253c-1.166-0.491-2.481-0.491-3.647,0l-21.966,9.253l-12.529-5.278l1.266-49.397L76.15,169.297z M66.969,155.234
			l0.25-9.742l8.931,3.762c1.166,0.491,2.48,0.491,3.646,0l21.966-9.253l21.967,9.253c1.166,0.491,2.481,0.491,3.647,0l21.96-9.252
			l21.963,9.252c1.166,0.492,2.48,0.492,3.646,0.001L196.931,140l22.002,9.255c0.584,0.245,1.201,0.367,1.822,0.367
			c0.619,0,1.238-0.122,1.82-0.367l8.967-3.772l0.252,9.745l-11.039,4.644l-22.002-9.255c-1.166-0.49-2.479-0.49-3.645,0
			l-21.984,9.254l-21.964-9.253c-1.165-0.492-2.48-0.492-3.647,0l-21.96,9.252l-21.967-9.252c-1.166-0.491-2.48-0.491-3.647,0
			l-21.966,9.253L66.969,155.234z M76.15,229.421c1.166,0.491,2.481,0.491,3.647,0l21.966-9.253l21.967,9.253
			c1.166,0.491,2.481,0.491,3.647,0l21.96-9.253l21.964,9.253c1.166,0.491,2.48,0.491,3.645,0.001l21.986-9.255l22.002,9.255
			c0.582,0.245,1.201,0.367,1.82,0.367c0.621,0,1.24-0.122,1.822-0.367l11-4.627l0.25,9.744l-13.072,5.499l-22.002-9.255
			c-1.164-0.49-2.479-0.49-3.643,0l-21.984,9.254l-21.964-9.253c-1.166-0.491-2.481-0.491-3.648,0l-21.96,9.253l-21.967-9.253
			c-1.166-0.491-2.48-0.491-3.647,0l-21.966,9.253l-13.038-5.492l0.249-9.743L76.15,229.421z M264.935,257.068
			c0,0.119-0.066,0.228-0.172,0.281l-20.998,10.498c0.182-0.994,0.264-2.014,0.236-3.049l-0.289-11.318l21.223-9.096V257.068z
			 M269.675,232.131l-26.223,11.238l-4.199-163.701c-0.064-2.594-2.229-4.638-4.816-4.574c-2.592,0.065-4.641,2.223-4.574,4.816
			l1.424,55.489l-10.531,4.429l-22.002-9.254c-1.164-0.49-2.479-0.49-3.643,0l-21.984,9.254l-21.964-9.253
			c-1.166-0.491-2.481-0.491-3.648,0l-21.96,9.253l-21.967-9.253c-1.166-0.491-2.48-0.491-3.647,0l-21.967,9.253l-10.497-4.422
			L68.9,79.91c0.066-2.594-1.982-4.751-4.575-4.816c-2.597-0.067-4.75,1.981-4.816,4.574l-4.197,163.701l-26.224-11.238
			c-0.119-0.051-0.193-0.167-0.19-0.296L33.053,57.26c0.415-17.4,11.87-32.529,28.505-37.648l28.328-8.717
			c0.007-0.002,0.015-0.004,0.021-0.007c1.451,13.979,7.72,26.917,17.93,36.776c11.207,10.82,25.96,16.78,41.542,16.78
			c15.544,0,30.271-5.935,41.47-16.71c10.248-9.863,16.549-22.833,18.004-36.846c0.006,0.002,0.012,0.004,0.02,0.006l28.328,8.717
			c16.635,5.119,28.092,20.248,28.506,37.648l4.156,174.575C269.868,231.964,269.794,232.08,269.675,232.131z"/>
	</g>
</g>
</svg>
