<?xml version="1.0" encoding="utf-8"?>
<!-- Generator: Adobe Illustrator 16.0.4, SVG Export Plug-In . SVG Version: 6.00 Build 0)  -->
<!DOCTYPE svg PUBLIC "-//W3C//DTD SVG 1.1//EN" "http://www.w3.org/Graphics/SVG/1.1/DTD/svg11.dtd">
<svg version="1.1" id="图层_1" xmlns="http://www.w3.org/2000/svg" xmlns:xlink="http://www.w3.org/1999/xlink" x="0px" y="0px"
	 width="300px" height="300px" viewBox="0 0 300 300" enable-background="new 0 0 300 300" xml:space="preserve">
<g>
	<path fill="#090909" d="M289.996,108.214c-5.193-19.965-9.806-40.08-14.691-60.126c-3.067-12.59-10.877-21.104-22.752-25.974
		c-6.461-2.65-13.089-4.911-19.46-7.755c-11.007-4.913-23.246-6.967-33.206-14.298c-0.003-0.021-0.006-0.04-0.008-0.062
		c-32.713,0-65.426,0-98.139,0C83.688,7.793,65.729,14.874,47.551,21.847c-12.606,4.837-20.1,13.819-23.309,26.529
		c-4.958,19.638-9.314,39.439-14.539,59.002c-2.111,7.909,0.329,11.397,7.76,13.904c11.301,3.812,22.134,8.996,33.401,12.917
		c5.691,1.98,7.2,5.021,7.172,10.825c-0.237,47.617-0.135,94.998-0.133,142.616c0,4.283-0.505,8.359,1.776,12.359
		c60.012,0,120.024,0,180.036,0c0.07,0,0.14,0.317,0.22,0.473c1.339-3.395,1.836-6.865,1.827-10.559
		c-0.098-32.705-0.019-65.408-0.104-98.115c-0.01-4.056,1.412-9.979-5.138-9.803c-5.697,0.153-4.483,5.624-4.493,9.444
		c-0.062,24.03-0.314,48.063,0.143,72.085c0.137,7.092-1.888,8.824-8.852,8.746c-33.368-0.378-66.744-0.172-100.117-0.166
		c-2.336,0-4.675-0.005-7.006,0.092c-3.109,0.127-5.136,1.6-4.951,4.912c0.166,2.988,2.378,3.666,4.942,3.663
		c2.336-0.003,4.672,0.013,7.009,0.013c34.041,0.001,68.082,0.041,102.122-0.049c4.083-0.012,6.975,0.05,6.835,5.602
		c-0.119,4.647-2.552,4.478-5.743,4.476c-51.061-0.034-102.122-0.033-153.184-0.002c-3.165,0.001-5.808,0.256-5.743-4.456
		c0.06-4.361,1.449-5.813,5.79-5.648c7.663,0.29,15.348,0.132,23.022,0.055c3.274-0.035,7.31,0.433,7.571-4.323
		c0.291-5.313-4.065-4.234-7.182-4.296c-6.672-0.131-13.413-0.619-20.007,0.109c-7.733,0.855-9.297-2.002-9.243-9.356
		c0.349-47.721-0.932-95.481,0.59-143.157c0.932-29.188-1.804-56.199-21.564-79.177c-4.755-5.526-1.528-7.853,3.549-9.789
		c13.354-5.092,26.881-9.805,39.925-15.604c7.439-3.309,10.104-3.035,12.121,5.904c4.997,22.132,22.753,38.116,42.997,40.699
		c18.465,2.357,37.665-8.091,47.687-26.579c2.977-5.494,5.36-11.57,6.592-17.668c1.017-5.034,2.035-5.874,6.828-3.883
		c14.119,5.867,28.424,11.293,42.716,16.738c6.052,2.306,8.383,4.731,3.735,11.237c-6.363,8.907-11.51,18.686-17.15,28.106
		c-1.692,2.826-3.525,5.485-3.516,9.12c0.1,29.703,0.063,59.404,0.05,89.108c-0.002,3.681,0.794,7.052,5.266,6.77
		c3.778-0.238,4.452-3.434,4.449-6.676c-0.007-7.676,0.393-15.378-0.122-23.02c-0.396-5.874,1.523-8.848,7.199-10.848
		c11.592-4.087,22.749-9.424,34.378-13.385C290.035,118.452,291.805,115.17,289.996,108.214z M275.307,113.57
		c-10.882,3.979-21.619,8.363-32.766,12.723c-2.301-7.449,0.079-10.729,6.353-12.8c7.854-2.595,15.328-6.333,23.002-9.493
		c2.813-1.159,5.99-4.19,7.767,1.437C281.054,109.844,279.564,112.012,275.307,113.57z M263.73,41.989
		c4.262,17.001,7.986,32.009,11.81,46.99c0.82,3.216-1.321,4.076-3.497,4.98c-9.75,4.056-19.515,8.074-28.924,11.962
		C235.058,80.289,250.966,62.929,263.73,41.989z M207.903,7.913c-3.411-1.101-6.886-2.249-7.829-6.638
		C201.018,5.487,204.492,6.755,207.903,7.913z M115.31,9.629c11.968,0.353,23.955,0.112,35.935,0.111
		c10.646,0,21.309,0.335,31.938-0.129c6.137-0.27,8.212,0.979,6.797,7.619c-4.17,19.531-22.068,35.445-40.421,35.217
		c-17.895-0.222-36.318-17.295-39.533-36.384C109.254,11.488,110.022,9.475,115.31,9.629z M57.076,126.315
		c-11.163-4.374-21.898-8.766-32.781-12.75c-4.266-1.562-5.739-3.74-4.343-8.14c1.784-5.622,4.957-2.586,7.775-1.422
		c7.672,3.166,15.15,6.902,23.006,9.502C57.014,115.585,59.358,118.891,57.076,126.315z M56.562,105.963
		c-9.319-3.858-19.079-7.884-28.825-11.945c-2.129-0.888-4.533-1.592-3.712-4.85c3.798-15.082,7.557-30.173,11.745-46.914
		C48.764,62.75,64.422,80.227,56.562,105.963z M234.873,245.589c0.021-10.006-0.02-20.014-0.016-30.021
		C234.854,225.574,234.894,235.584,234.873,245.589z M239,199.542c0-0.035,0-0.069,0-0.104c0-1.084,0.048-2.18,0.048-3.28
		C239.052,197.297,239,198.428,239,199.542z M238.976,289.419c0.044-14.989,0.051-29.949,0.044-44.909
		c0.007,15.048,0,30.095-0.044,45.143c-0.005,1.774-0.208,3.574-0.202,5.355C238.757,293.17,238.971,291.242,238.976,289.419z
		 M234.818,195.394c-0.025,1.742,0.182,3.476,0.182,5.134c0,0.008,0,0.015,0,0.022C235,198.88,234.789,197.142,234.818,195.394z
		 M218.205,277.544c-16.685-0.045-33.368,0.01-50.054-0.027c-16.281-0.037-32.568,0.162-50.489-0.165
		c0.001-0.001,0.003-0.001,0.004-0.002c17.919,0.327,34.205,0.129,50.485,0.166C184.837,277.553,201.521,277.498,218.205,277.544
		c3.207,0.007,6.437-0.075,9.568,0.707C224.642,277.469,221.412,277.551,218.205,277.544z"/>
	<path fill="#090909" d="M137.979,25.868c3.936,0.357,8.021,0.088,12.021,0.088c0,0.019,0,0.036,0,0.055
		c4,0,7.82,0.134,11.781-0.044c3.059-0.138,5.028-2.034,4.904-5.063c-0.125-3.076-2.347-4.544-5.461-4.533
		c-7.61,0.024-15.237-0.032-22.847,0.055c-2.521,0.029-4.438,1.068-4.77,3.942C133.233,23.624,135.012,25.599,137.979,25.868z"/>
</g>
</svg>
