<?xml version="1.0" encoding="utf-8"?>
<!-- Generator: Adobe Illustrator 16.0.4, SVG Export Plug-In . SVG Version: 6.00 Build 0)  -->
<!DOCTYPE svg PUBLIC "-//W3C//DTD SVG 1.1//EN" "http://www.w3.org/Graphics/SVG/1.1/DTD/svg11.dtd">
<svg version="1.1" id="图层_1" xmlns="http://www.w3.org/2000/svg" xmlns:xlink="http://www.w3.org/1999/xlink" x="0px" y="0px"
	 width="300px" height="300px" viewBox="0 0 300 300" enable-background="new 0 0 300 300" xml:space="preserve">
<g>
	<path id="XMLID_61_" d="M126.213,177.09v1.466c0,3.661-2.968,6.63-6.629,6.63c-3.662,0-6.63-2.969-6.63-6.63v-1.466
		c0-3.662,2.968-6.63,6.63-6.63C123.245,170.46,126.213,173.428,126.213,177.09z M178.648,142.327c-3.662,0-6.629,2.968-6.629,6.63
		v1.466c0,3.661,2.967,6.63,6.629,6.63s6.629-2.969,6.629-6.63v-1.466C185.277,145.295,182.309,142.327,178.648,142.327z
		 M263.27,114.58v179.213c0,3.661-2.967,6.629-6.629,6.629h-71.479c-2.506,0-4.797-1.413-5.924-3.651l-4.648-9.243
		c-6.871-1.877-15.984-2.938-25.477-2.938c-9.535,0-18.691,1.07-25.576,2.963l-4.65,9.224c-1.127,2.235-3.417,3.645-5.92,3.645
		H41.586c-3.661,0-6.629-2.968-6.629-6.63V114.58c0-3.662,2.968-6.63,6.629-6.63c16.109,0,29.215-13.105,29.215-29.213V7.051
		c0-3.661,2.969-6.629,6.63-6.629h25.001c2.589,0,4.939,1.506,6.022,3.856l4.265,9.262c12.148,2.656,23.062,5.481,36.395,4.882
		c28.973-1.305,35.951-4.832,36.395-4.882l4.266-9.262c1.084-2.351,3.434-3.856,6.021-3.856h25.004c3.662,0,6.629,2.968,6.629,6.629
		v71.686c0,16.107,13.105,29.213,29.213,29.213C260.303,107.95,263.27,110.918,263.27,114.58z M119.837,26.996l29.278,65.582
		l29.277-65.582c-8.654,1.75-18.719,2.686-29.277,2.686C138.555,29.682,128.492,28.746,119.837,26.996z M144.484,220.531V109.883
		L98.188,11.682H81.061v67.055c0,21.164-14.561,35.764-34.845,38.955v171.471h62.67L144.484,220.531z M167.045,275.52
		l-17.938-39.672l-17.993,39.682c5.592-0.785,11.689-1.199,18.002-1.199C155.398,274.33,161.473,274.74,167.045,275.52z
		 M252.01,117.691c-20.281-3.191-33.84-17.791-33.84-38.955V11.682h-18.129l-45.299,98.201v110.651l34.506,67.628h61.762
		 M119.584,198.594c-3.662,0-6.63,2.969-6.63,6.63v1.466c0,3.662,2.968,6.63,6.63,6.63c3.661,0,6.629-2.968,6.629-6.63v-1.466
		C126.213,201.562,123.245,198.594,119.584,198.594z M119.584,142.327c-3.662,0-6.63,2.968-6.63,6.63v1.466
		c0,3.661,2.968,6.63,6.63,6.63c3.661,0,6.629-2.969,6.629-6.63v-1.466C126.213,145.295,123.245,142.327,119.584,142.327z
		 M178.648,198.594c-3.662,0-6.629,2.969-6.629,6.63v1.466c0,3.662,2.967,6.63,6.629,6.63s6.629-2.968,6.629-6.63v-1.466
		C185.277,201.562,182.309,198.594,178.648,198.594z M119.584,114.193c-3.662,0-6.63,2.969-6.63,6.63v1.466
		c0,3.662,2.968,6.629,6.63,6.629c3.661,0,6.629-2.967,6.629-6.629v-1.466C126.213,117.162,123.245,114.193,119.584,114.193z
		 M178.648,170.46c-3.662,0-6.629,2.968-6.629,6.63v1.466c0,3.661,2.967,6.63,6.629,6.63s6.629-2.969,6.629-6.63v-1.466
		C185.277,173.428,182.309,170.46,178.648,170.46z M178.648,114.193c-3.662,0-6.629,2.969-6.629,6.63v1.466
		c0,3.662,2.967,6.629,6.629,6.629s6.629-2.967,6.629-6.629v-1.466C185.277,117.162,182.309,114.193,178.648,114.193z"/>
</g>
</svg>
