<?xml version="1.0" encoding="utf-8"?>
<!-- Generator: Adobe Illustrator 16.0.4, SVG Export Plug-In . SVG Version: 6.00 Build 0)  -->
<!DOCTYPE svg PUBLIC "-//W3C//DTD SVG 1.1//EN" "http://www.w3.org/Graphics/SVG/1.1/DTD/svg11.dtd">
<svg version="1.1" id="图层_1" xmlns="http://www.w3.org/2000/svg" xmlns:xlink="http://www.w3.org/1999/xlink" x="0px" y="0px"
	 width="300px" height="300px" viewBox="0 0 300 300" enable-background="new 0 0 300 300" xml:space="preserve">
<g>
	<path d="M43.548,38.266c1.801-1.603,1.962-4.361,0.359-6.165c-1.601-1.802-4.361-1.963-6.162-0.359
		C29.23,39.315,21.532,47.926,14.867,57.34c-3.752,5.295-7.238,10.926-10.361,16.734c-3.047,5.663-2.458,12.592,1.5,17.652
		c0.014,0.018,0.028,0.036,0.043,0.054c0,0,18.112,22.412,18.136,22.441c4.903,6.065,13.563,7.943,20.451,4.185l21.457-10.814
		c-2.124,8.55-5.192,22.505-7.802,40.65c-4.073,28.321-7.707,72.544-1.881,122.386c0.605,5.184,1.303,10.357,2.074,15.379
		c1.083,7.041,7.036,12.148,14.156,12.148h35.043c6.765,0,12.515-4.604,13.982-11.202c1.178-5.321,2.621-10.68,4.172-15.5
		c3.905-12.131,12.284-32.475,24.545-32.475c12.259,0,20.638,20.344,24.542,32.478c1.55,4.817,2.992,10.176,4.173,15.5
		c1.467,6.595,7.215,11.199,13.979,11.199h35.046c7.119,0,13.073-5.107,14.155-12.148c2.514-16.35,4.062-32.852,4.739-49.38
		c0.101-2.411-1.772-4.443-4.184-4.541c-2.401-0.099-4.441,1.773-4.541,4.185c-0.408,9.905-1.14,19.804-2.182,29.481h-53.883
		c-8.116-23.564-18.823-35.506-31.849-35.506c-13.026,0-23.733,11.941-31.849,35.506H64.648
		c-9.867-91.612,12.13-164.354,12.381-165.168c1.119-3.622-2.738-6.904-6.135-5.192l-12.89,6.498L23.927,59.718
		C29.75,51.884,36.338,44.68,43.548,38.266z M235.081,274.485c-0.44,3.439-0.921,6.853-1.434,10.196
		c-0.415,2.703-2.791,4.742-5.524,4.742h-35.046c-2.641,0-4.883-1.796-5.454-4.363c-0.801-3.613-1.692-7.15-2.661-10.575H235.081z
		 M115.8,274.485c-0.971,3.425-1.86,6.962-2.661,10.573c-0.571,2.569-2.814,4.365-5.456,4.365H72.64
		c-2.733,0-5.11-2.039-5.526-4.742c-0.514-3.344-0.994-6.757-1.435-10.196H115.8z M50.024,105.912l-9.387,4.73
		c-0.051,0.024-0.1,0.051-0.148,0.078c-3.179,1.746-7.215,0.938-9.453-1.916c-0.012-0.015-0.025-0.03-0.039-0.048L12.866,86.322
		c-1.806-2.328-2.07-5.51-0.669-8.113c2.026-3.77,4.216-7.461,6.536-11.022L50.024,105.912z"/>
	<g>
		<path fill="none" d="M282.03,67.187l-31.294,38.725l9.39,4.73c0.05,0.024,0.099,0.054,0.147,0.078
			c3.157,1.748,7.222,0.941,9.451-1.916c0.014-0.015,0.028-0.03,0.041-0.048l18.131-22.435c1.807-2.327,2.069-5.509,0.669-8.11
			C286.539,74.439,284.35,70.748,282.03,67.187z"/>
		<path d="M94.199,0.414c-8.148,2.244-24.462,7.843-42.212,20.129c-1.98,1.373-2.476,4.092-1.102,6.076
			c1.371,1.983,4.091,2.476,6.073,1.103C72.551,16.928,86.895,11.646,94.921,9.288l10.435-3.484
			C103.51,1.609,98.746-0.838,94.199,0.414z"/>
		<path d="M296.257,74.072c-3.122-5.806-6.608-11.438-10.36-16.735c-27.861-39.327-64.762-52.91-79.332-56.923
			c-4.749-1.31-9.727,1.406-11.385,5.93l8.578,2.558c0.146-0.079,0.312-0.117,0.486-0.069c13.336,3.673,46.615,15.905,72.592,50.886
			l-34.076,42.171c0,0-12.834-6.468-12.89-6.498c-3.403-1.713-7.258,1.57-6.139,5.19c0.152,0.49,15.188,49.984,14.947,118.386
			c-0.01,2.409,1.94,4.371,4.366,4.382c2.406,0,4.359-1.946,4.366-4.354c0.185-52.093-8.359-93.53-12.771-111.419
			c0,0,21.467,10.82,21.485,10.829c7,3.527,15.507,2.089,20.451-4.185l18.136-22.441c0.014-0.018,0.029-0.036,0.043-0.054
			C298.715,86.667,299.305,79.737,296.257,74.072z M287.896,86.321l-18.131,22.435c-0.013,0.018-0.027,0.033-0.041,0.048
			c-2.229,2.857-6.294,3.664-9.451,1.916c-0.049-0.024-0.098-0.054-0.147-0.078l-9.39-4.73l31.294-38.725
			c2.319,3.561,4.509,7.252,6.535,11.024C289.966,80.812,289.703,83.994,287.896,86.321z"/>
	</g>
	<g>
		<path d="M97.421,11.966c16.698,31.054,33.396,62.109,50.093,93.165c1.343,2.495,4.141,2.458,5.488,0
			c17.019-31.055,34.036-62.111,51.055-93.165c3.328-6.075-2.142-15.079-5.487-8.973c-17.018,31.054-34.037,62.11-51.055,93.164
			c1.83,0,3.659,0,5.488,0c-16.698-31.054-33.396-62.11-50.093-93.164C99.598-3.163,94.131,5.849,97.421,11.966L97.421,11.966z"/>
	</g>
</g>
</svg>
