<?xml version="1.0" encoding="utf-8"?>
<!-- Generator: Adobe Illustrator 23.0.1, SVG Export Plug-In . SVG Version: 6.00 Build 0)  -->
<svg version="1.1" id="图层_1" xmlns="http://www.w3.org/2000/svg" xmlns:xlink="http://www.w3.org/1999/xlink" x="0px" y="0px"
	 viewBox="0 0 300 300" style="enable-background:new 0 0 300 300;" xml:space="preserve">
<style type="text/css">
	.st0{fill:none;}
	.st1{fill:#FFFFFF;stroke:#000000;stroke-width:10;stroke-linecap:round;stroke-linejoin:round;stroke-miterlimit:10;}
</style>
<g>
	<path class="st0" d="M261.9,142.1c-0.4-0.1-0.9-0.2-1.3-0.3C261,141.9,261.5,142,261.9,142.1z"/>
	<path class="st0" d="M287,116.9c1.8-2.3,2.1-5.5,0.7-8.1C289.1,111.4,288.8,114.5,287,116.9z"/>
	<path class="st0" d="M11.3,108.8c-1.4,2.6-1.1,5.8,0.7,8.1l18.1,22.4c0,0,0,0,0,0c2.2,2.9,6.3,3.7,9.5,1.9c0,0,0.1-0.1,0.1-0.1
		l9.4-4.7L17.9,97.7C15.5,101.3,13.4,105,11.3,108.8z"/>
	<path d="M61.8,224.2c2.8-55,14.1-92.5,14.3-93.1c1.1-3.6-2.7-6.9-6.1-5.2l-12.9,6.5L23.1,90.3c5.8-7.8,12.4-15,19.6-21.5
		c1.8-1.6,2-4.4,0.4-6.2c-1.6-1.8-4.4-2-6.2-0.4C28.4,69.9,20.7,78.5,14,87.9c-3.8,5.3-7.2,10.9-10.4,16.7c-3,5.7-2.5,12.6,1.5,17.7
		c0,0,0,0,0,0.1c0,0,18.1,22.4,18.1,22.4c4.9,6.1,13.6,7.9,20.5,4.2l21.5-10.8c-2.1,8.5-5.2,22.5-7.8,40.7c-1.7,12.1-3.4,27-4.3,44
		c0.8-0.2,1.6-0.2,2.5-0.2C57.9,222.6,60,223.2,61.8,224.2z M39.8,141.2c-0.1,0-0.1,0.1-0.1,0.1c-3.2,1.7-7.2,0.9-9.5-1.9
		c0,0,0,0,0,0L12,116.9c-1.8-2.3-2.1-5.5-0.7-8.1c2-3.8,4.2-7.5,6.5-11l31.3,38.7L39.8,141.2z"/>
	<path class="st0" d="M287.7,108.8c-2-3.8-4.2-7.5-6.5-11l-31.3,38.7l9.4,4.7c0,0,0.1,0.1,0.1,0.1c0.4,0.2,0.8,0.4,1.2,0.5
		c0.4,0.1,0.8,0.2,1.3,0.3c0.9,0.1,1.7,0.1,2.6-0.1c0.6-0.1,1.3-0.3,1.8-0.6c1-0.5,1.8-1.2,2.5-2.1c0,0,0,0,0,0l18.1-22.4
		C288.8,114.5,289.1,111.4,287.7,108.8z"/>
	<path d="M103.7,36.6l0.8-0.3c-0.7-1.6-1.8-2.9-3.2-3.9c0.3,0.3,0.5,0.7,0.8,1.1C102.6,34.6,103.1,35.6,103.7,36.6z"/>
	<path d="M99.6,31.5c-1.9-0.9-4.1-1.1-6.3-0.5c-8.1,2.2-24.5,7.8-42.2,20.1c-2,1.4-2.5,4.1-1.1,6.1c1.4,2,4.1,2.5,6.1,1.1
		c15.6-10.8,29.9-16.1,38-18.4l1.5-0.5C95.2,35.3,97.4,31.3,99.6,31.5z"/>
	<path d="M295.4,104.6c-3.1-5.8-6.6-11.4-10.4-16.7C257.2,48.6,220.3,35,205.7,31c-4.7-1.3-9.7,1.4-11.4,5.9l1.3,0.4
		c0.7-1.2,1.4-2.5,2.1-3.7c2.8-5.2,7.2,0.5,6.4,6.1c13.8,3.9,46.3,16.3,71.8,50.7l-34.1,42.2c0,0-12.8-6.5-12.9-6.5
		c-3.4-1.7-7.3,1.6-6.1,5.2c0.2,0.5,15.2,50,14.9,118.4c0,2.4,1.9,4.4,4.4,4.4c2.4,0,4.4-1.9,4.4-4.4c0.2-52.1-8.4-93.5-12.8-111.4
		c0,0,21.5,10.8,21.5,10.8c7,3.5,15.5,2.1,20.5-4.2l18.1-22.4c0,0,0,0,0-0.1C297.8,117.2,298.4,110.3,295.4,104.6z M287,116.9
		l-18.1,22.4c0,0,0,0,0,0c-0.7,0.9-1.6,1.6-2.5,2.1c-0.6,0.3-1.2,0.5-1.8,0.6c-0.8,0.2-1.7,0.2-2.6,0.1c-0.4-0.1-0.9-0.2-1.3-0.3
		c-0.4-0.1-0.8-0.3-1.2-0.5c0,0-0.1-0.1-0.1-0.1l-9.4-4.7l31.3-38.7c2.3,3.6,4.5,7.3,6.5,11C289.1,111.4,288.8,114.5,287,116.9z"/>
	<path d="M266.3,141.4c-0.6,0.3-1.2,0.5-1.8,0.6C265.1,141.9,265.7,141.7,266.3,141.4z"/>
	<path d="M281.2,97.7c2.3,3.6,4.5,7.3,6.5,11C285.7,105,283.5,101.3,281.2,97.7z"/>
	<path d="M99.6,31.5c0.6,0.3,1.1,0.6,1.6,0.9C100.7,31.8,100.2,31.5,99.6,31.5z"/>
	<path d="M202.9,39.5l-7.2-2.2c-15.4,28.1-30.8,56.2-46.2,84.4c0.9,1.7,1.8,3.4,2.7,5.1c-1.8,0-3.7,0-5.5,0c0.9-1.7,1.8-3.4,2.8-5.1
		c-15.2-28.3-30.5-56.7-45.7-85l-8.1,2.7c0.1,1.1,0.4,2.2,1,3.2c16.7,31.1,33.4,62.1,50.1,93.2c1.3,2.5,4.1,2.5,5.5,0
		c17-31.1,34-62.1,51.1-93.2c0.5-0.9,0.8-1.9,0.9-2.9c-0.3-0.1-0.5-0.1-0.8-0.2C203.2,39.3,203,39.4,202.9,39.5z"/>
	<path d="M152.1,126.7c-0.9-1.7-1.8-3.4-2.7-5.1c-0.9,1.7-1.8,3.4-2.8,5.1C148.5,126.7,150.3,126.7,152.1,126.7z"/>
	<path d="M102,33.5c-0.2-0.5-0.5-0.8-0.8-1.1c-0.5-0.4-1.1-0.7-1.6-0.9c-2.3-0.2-4.5,3.8-4,7.8l8.1-2.7
		C103.1,35.6,102.6,34.6,102,33.5z"/>
	<path d="M197.7,33.5c-0.7,1.2-1.4,2.5-2.1,3.7l7.2,2.2c0.1-0.1,0.3-0.1,0.5-0.1c0.2,0.1,0.5,0.1,0.8,0.2
		C204.9,34,200.5,28.4,197.7,33.5z"/>
	<path d="M61.2,250.6c0-9.5,0.2-18.6,0.6-27.4c-1.8-1.3-4-2.1-6.2-2.1c-0.8,0-1.7,0.1-2.5,0.3c-0.4,9.6-0.6,19.7-0.7,30.3
		c1,0.3,2,0.5,3.1,0.5C57.7,252.3,59.6,251.7,61.2,250.6z"/>
</g>
<path class="st1" d="M57.6,250.3c0,0,102.5,34.4,183.2,1.6"/>
</svg>
